<?xml version="1.0" standalone="no"?>
<!DOCTYPE svg PUBLIC "-//W3C//DTD SVG 20010904//EN"
 "http://www.w3.org/TR/2001/REC-SVG-20010904/DTD/svg10.dtd">
<svg version="1.0" xmlns="http://www.w3.org/2000/svg"
 width="820.000000pt" height="820.000000pt" viewBox="0 0 820.000000 820.000000"
 preserveAspectRatio="xMidYMid meet">
<metadata>
Created by potrace 1.11, written by Peter Selinger 2001-2013
</metadata>
<g transform="translate(0.000000,820.000000) scale(0.100000,-0.100000)"
fill="#000000" stroke="none">
<path d="M2110 8026 c-3 -2 -36 -7 -75 -10 -38 -3 -81 -8 -95 -11 -14 -3 -41
-8 -60 -11 -125 -22 -334 -85 -445 -136 -27 -12 -52 -22 -55 -23 -9 -1 -225
-118 -230 -124 -3 -4 -29 -22 -58 -39 -30 -18 -59 -37 -65 -43 -7 -5 -30 -23
-52 -40 -97 -75 -126 -100 -231 -204 -96 -96 -189 -204 -259 -300 -11 -16 -26
-34 -33 -41 -7 -7 -12 -15 -11 -16 1 -2 -18 -34 -43 -73 -24 -38 -59 -97 -78
-130 -18 -33 -36 -64 -40 -70 -5 -5 -9 -13 -10 -17 0 -4 -16 -40 -34 -80 -42
-94 -87 -205 -91 -230 -3 -11 -9 -26 -16 -34 -6 -8 -9 -14 -5 -14 3 0 1 -12
-5 -27 -17 -46 -64 -228 -73 -283 -1 -8 -6 -37 -11 -65 -4 -27 -9 -61 -11 -75
-1 -14 -3 -25 -4 -25 -7 0 -14 -164 -14 -345 0 -222 5 -308 29 -451 10 -60 6
-41 54 -249 11 -48 91 -280 104 -305 6 -11 12 -25 13 -31 3 -16 121 -249 149
-294 14 -22 25 -44 25 -49 0 -5 3 -11 8 -13 4 -1 28 -34 53 -73 81 -123 190
-254 382 -459 22 -23 69 -75 107 -116 37 -41 81 -89 97 -105 47 -51 200 -219
220 -241 10 -12 62 -68 115 -126 54 -57 106 -114 115 -125 25 -28 170 -186
218 -238 22 -23 76 -82 120 -130 44 -48 96 -104 115 -125 19 -21 66 -72 104
-114 37 -42 85 -93 105 -114 20 -21 71 -76 114 -124 94 -104 105 -116 225
-246 53 -57 104 -113 114 -125 21 -24 88 -96 182 -198 34 -36 95 -102 136
-148 41 -45 93 -102 115 -126 22 -23 74 -80 115 -125 41 -45 93 -101 115 -125
22 -23 76 -82 120 -131 44 -49 93 -102 108 -119 16 -16 57 -61 92 -100 35 -38
85 -92 111 -120 25 -27 76 -83 113 -124 110 -122 171 -181 209 -200 47 -23
134 -22 183 2 33 16 98 75 147 134 10 12 68 75 128 140 117 126 176 190 221
239 15 17 69 75 118 129 50 53 103 111 119 128 15 18 71 79 125 136 53 57 121
131 151 164 30 33 71 77 90 98 19 21 71 77 115 125 44 48 96 104 115 125 19
20 71 77 115 125 44 48 108 117 141 153 34 37 83 90 110 120 27 29 65 70 84
91 19 21 69 74 110 119 41 45 95 104 120 130 25 27 78 85 118 129 40 44 88 96
105 115 18 18 73 78 122 132 50 53 106 114 125 135 131 141 220 238 335 364
44 48 103 112 130 141 28 29 79 85 115 125 36 39 81 89 100 109 38 41 203 221
235 257 51 58 133 167 182 244 23 36 45 70 50 76 23 29 146 270 180 349 46
111 117 322 128 383 3 15 9 41 14 59 5 17 7 34 3 37 -3 3 -1 6 5 6 5 0 9 9 8
21 -1 12 4 51 11 88 7 36 17 102 21 146 9 95 9 506 0 585 -15 119 -20 148 -39
235 -10 50 -21 99 -23 109 -11 50 -59 205 -81 265 -14 36 -27 71 -28 76 -12
48 -117 256 -183 365 -59 96 -167 254 -200 290 -7 8 -30 35 -51 60 -62 73
-212 219 -297 287 -44 35 -87 70 -95 77 -104 84 -468 273 -561 291 -10 2 -26
8 -37 14 -10 5 -30 12 -43 15 -13 3 -58 15 -99 26 -41 11 -91 23 -110 26 -49
7 -80 12 -115 18 -73 12 -180 19 -300 19 -113 0 -162 -3 -277 -17 -23 -3 -174
-32 -213 -40 -96 -22 -357 -114 -363 -128 -2 -4 -8 -8 -14 -8 -14 0 -162 -73
-166 -82 -2 -5 -8 -8 -14 -8 -5 0 -29 -13 -53 -30 -24 -16 -46 -30 -50 -30 -3
0 -11 -4 -18 -10 -7 -5 -52 -39 -102 -76 -49 -36 -95 -72 -101 -80 -6 -8 -15
-14 -20 -14 -16 0 -411 -413 -422 -441 -4 -10 -31 18 -162 161 -293 322 -531
500 -855 640 -63 28 -215 82 -235 85 -8 1 -31 7 -51 13 -37 13 -61 18 -118 28
-18 3 -43 8 -55 10 -11 3 -34 7 -51 10 -16 3 -43 7 -60 10 -39 7 -410 16 -415
10z m345 -520 c152 -19 290 -53 435 -108 90 -33 275 -135 365 -200 148 -107
170 -128 415 -398 162 -178 203 -222 255 -275 85 -87 167 -110 260 -74 29 12
132 110 244 235 286 317 406 436 510 504 13 8 29 20 35 26 21 20 216 130 246
139 3 1 23 9 45 19 84 37 302 105 345 108 8 0 51 7 95 14 82 13 379 13 465 0
59 -9 221 -45 240 -53 8 -3 21 -7 27 -9 48 -10 300 -118 313 -134 3 -4 13 -10
24 -13 16 -7 154 -95 166 -107 3 -3 28 -23 55 -45 52 -41 198 -184 250 -245
53 -62 125 -159 125 -168 0 -5 9 -17 20 -27 11 -10 20 -24 20 -31 0 -7 3 -14
8 -16 4 -1 15 -16 25 -33 31 -50 140 -279 140 -292 0 -7 5 -13 10 -13 6 0 7
-3 4 -6 -3 -4 -2 -15 4 -26 10 -18 64 -191 76 -242 8 -34 24 -127 39 -226 4
-25 7 -142 8 -260 0 -191 -4 -261 -18 -337 -3 -11 -8 -43 -12 -70 -9 -53 -11
-62 -13 -65 -2 -2 -4 -14 -7 -27 -6 -31 -43 -160 -54 -186 -4 -11 -18 -47 -31
-80 -43 -115 -167 -351 -221 -420 -5 -5 -22 -28 -38 -50 -55 -74 -93 -119
-200 -235 -14 -15 -65 -71 -115 -125 -49 -54 -101 -110 -114 -124 -23 -26
-164 -180 -211 -230 -14 -15 -70 -76 -125 -135 -55 -59 -116 -125 -135 -146
-19 -20 -71 -77 -115 -125 -44 -48 -93 -102 -110 -120 -16 -17 -68 -74 -115
-125 -47 -52 -105 -115 -130 -141 -25 -26 -81 -87 -125 -135 -44 -48 -97 -106
-118 -128 -21 -23 -54 -59 -75 -81 -20 -22 -80 -87 -132 -144 -52 -58 -108
-119 -125 -137 -16 -17 -68 -73 -115 -124 -166 -180 -215 -234 -253 -272 -20
-21 -37 -41 -37 -43 0 -2 -19 -24 -42 -48 -38 -39 -107 -113 -290 -312 -120
-130 -137 -150 -138 -158 0 -5 -4 -5 -10 -2 -5 3 -10 2 -10 -2 0 -9 -7 -18
-159 -182 -47 -51 -99 -108 -115 -125 -15 -17 -49 -53 -74 -80 l-46 -49 -40
44 c-22 24 -65 71 -95 105 -91 98 -243 264 -279 303 -18 20 -49 54 -70 77 -95
103 -232 254 -273 299 -24 27 -53 58 -64 70 -11 11 -45 47 -75 80 -30 33 -98
107 -150 164 -52 56 -106 115 -120 131 -27 30 -157 172 -205 224 -75 81 -134
146 -180 197 -27 30 -96 104 -151 164 -56 61 -112 122 -125 136 -13 15 -63 69
-110 120 -48 52 -104 114 -125 138 -22 24 -59 64 -84 90 -25 26 -65 69 -89 97
-24 27 -87 96 -140 154 -53 57 -116 127 -141 154 -25 27 -56 61 -70 76 -24 26
-183 198 -225 244 -11 12 -56 62 -100 110 -44 49 -105 115 -135 147 -30 32
-66 73 -80 90 -14 18 -31 38 -38 45 -37 37 -142 191 -196 285 -37 66 -106 210
-106 222 0 7 -4 17 -9 23 -12 12 -65 170 -90 269 -44 170 -59 316 -56 540 1
116 5 221 8 235 3 14 8 43 11 65 3 22 8 51 11 65 3 14 7 36 9 50 6 41 25 109
59 210 17 52 30 98 29 103 -1 4 2 7 8 7 5 0 10 7 10 16 0 32 151 324 172 332
4 2 8 8 8 14 0 9 83 128 115 165 5 6 26 30 45 53 51 61 169 180 219 220 24 19
56 45 71 58 16 12 31 22 34 22 3 0 14 7 24 16 75 67 390 215 504 238 13 2 55
12 93 21 157 38 392 51 550 31z"/>
<path d="M5977 6634 c-1 -1 -24 -4 -52 -8 -27 -3 -65 -10 -83 -15 -18 -5 -36
-10 -40 -10 -49 -5 -198 -74 -282 -131 -68 -47 -240 -214 -240 -234 0 -2 -18
-34 -40 -70 -22 -36 -40 -68 -40 -72 0 -3 -6 -20 -14 -37 -48 -107 -70 -220
-69 -357 1 -119 8 -170 38 -270 1 -3 5 -18 10 -35 27 -101 124 -255 225 -355
146 -145 309 -229 520 -266 47 -9 203 -9 265 -1 143 18 275 69 407 158 69 46
223 198 233 229 4 11 10 20 15 20 5 0 12 10 16 23 4 12 17 38 29 57 83 135
128 380 103 565 -31 234 -108 315 -268 283 -33 -7 -83 -53 -101 -92 -23 -51
-24 -87 -2 -168 16 -64 22 -199 10 -253 -4 -16 -9 -40 -11 -52 -11 -54 -82
-175 -134 -231 -65 -68 -126 -115 -135 -105 -4 3 -7 2 -7 -4 0 -8 -100 -53
-132 -59 -5 -1 -9 -2 -10 -3 -21 -16 -211 -16 -268 -1 -59 16 -180 71 -180 81
0 5 -6 9 -13 9 -15 0 -82 62 -130 121 -34 42 -82 135 -92 176 -3 10 -9 36 -14
58 -13 54 -19 175 -8 175 4 0 6 4 3 8 -4 8 8 79 20 112 3 8 5 16 5 18 -1 1 11
26 25 55 100 199 297 321 519 321 56 0 125 -10 159 -24 44 -17 108 -15 150 5
128 61 139 245 19 312 -47 26 -149 56 -163 48 -5 -3 -10 -2 -10 3 0 4 -24 10
-52 11 -81 5 -178 8 -181 5z"/>
</g>
</svg>
