<svg xmlns="http://www.w3.org/2000/svg" viewBox="0 0 170.08 170.08"><defs><style>.cls-1{fill:#6f4012;stroke:#6f4012;}.cls-1,.cls-7{stroke-miterlimit:10;}.cls-2{fill:#d29541;}.cls-3{fill:#d2963d;}.cls-4{fill:#885521;}.cls-5{fill:#d2953f;}.cls-6{fill:#d59641;}.cls-7{fill:#d2973b;stroke:#d1973b;}.cls-8{fill:#9c6322;}.cls-9{fill:#d1973b;}.cls-10{fill:#9f6426;}.cls-11{fill:#d29643;}.cls-12{fill:#f7a42c;}.cls-13{fill:#e94f0e;}.cls-14{fill:#f49f15;}.cls-15{fill:#e42912;}</style></defs><title>bonfire</title><g id="Layer_6" data-name="Layer 6"><g id="Layer_30" data-name="Layer 30"><path class="cls-1" d="M77.15,111.44c-6.19-.08-35.91-2.4-38.91-2.24-.19,0,.41.15,1.09,1.18A13.19,13.19,0,0,1,41,113.89a10.64,10.64,0,0,1,.8,3.83,13.18,13.18,0,0,1-.28,3.09c-.09.27.71.06.8,0C45.57,120,80,111.48,77.15,111.44Z"/><path class="cls-2" d="M42.9,118.05c-.21,2.82,0,2.83-4.13,3.94-3.17.85-3.58,1.47-4.63-1.13-1.43-3.51,1.41-12,4.38-12S43.13,115.18,42.9,118.05Z"/><path class="cls-1" d="M31.26,124c6.15-1.64,44.29-12.17,47.44-13a6.6,6.6,0,0,1,1.45-.18,3.56,3.56,0,0,1,1.95.34c.81.5.72,1.23,1.36,1.35.31.06.67-.11,1.38-.46a7.54,7.54,0,0,1,1.09-.54,2.81,2.81,0,0,1,1.27,0,7.8,7.8,0,0,0,3.68-.14c.93-.35.67-.73,1.7-1.25a6,6,0,0,1,3.87-.35,8.08,8.08,0,0,1,2.7,1c3,1.73,6.29,3,9.33,4.63,9.62,5.32,27.12,14.53,30.45,15.91a5.88,5.88,0,0,0-3.47,1.09,23.21,23.21,0,0,0-6.5,7.75c-1.07,2-2.55,8.93-2.33,10.11.07.34-.9-.67-1-.76-4.74-3.4-20.46-19.23-19.81-17.8.42.9,3.78,9.52,4,10.38.15.52-3.26-4.27-4.63-4.78a16.33,16.33,0,0,0-6.1-1.18,10.44,10.44,0,0,0-5.83,2.13c-3.15,2.63-3.48,9.07-3.74,9.54-.48.89-2.09-13.37-2.25-13.9s-2.61,21.86-2.91,22.5,0-2.87-2.14-5.82a19.09,19.09,0,0,0-5-4.85A8.92,8.92,0,0,0,73.37,144a11.12,11.12,0,0,0-5.14.43,15.6,15.6,0,0,0-5.76,3.44,12.56,12.56,0,0,0-2,2.6c0-1.21,5.4-13.14,9.63-20.95,0,0,.72-1.12.53-1.06-5,1.73-24.75,17.26-21.13,14.9-.67.44-2.57-1.94-1.82-2.37,4-2.26,8.93-5.47,8.93-5.47s-17.21,6.37-18.54,7.27a4.78,4.78,0,0,1-1.31.28c-.15-.12,1.22-1,1.31-1.17.92-1.55.86-5,.56-7.15a18.25,18.25,0,0,0-2.35-6.54C34.34,124.55,30.55,124.19,31.26,124Z"/><path class="cls-1" d="M99.33,111.07c7.82-.06,37.56-2.09,37.56-2.09h0l1.06.78a11.47,11.47,0,0,1,2.92,4.08,17.14,17.14,0,0,1,.87,9.75c-.59,2.3-2.8,6.3-4.63,6a8,8,0,0,1-3-1C113.37,117.36,96.85,111.09,99.33,111.07Z"/><path class="cls-3" d="M110.9,145.58c0,5.8-6.85,9-11.88,9s-9.85-1.82-9.85-7.62A11.08,11.08,0,0,1,93.58,138a12,12,0,0,1,6.46-2C105.06,136.05,110.9,139.78,110.9,145.58Z"/><path class="cls-4" d="M97.77,138.85a7.3,7.3,0,0,0-4.33,3.31,5.59,5.59,0,0,0,1.2,7.93c2.91,2.35,6.75,1.22,7.47,1a6.62,6.62,0,0,0,4.33-3.28,5.88,5.88,0,0,0,.16-4.24,7.14,7.14,0,0,0-3.84-4.15A7.27,7.27,0,0,0,97.77,138.85Z"/><path class="cls-5" d="M98,140.64A6.67,6.67,0,0,0,95.63,142a6.29,6.29,0,0,0-1.85,3.06,4.66,4.66,0,0,0,.21,3.57c1,1.67,3.25,1.85,4.09,1.92,3,.23,5.1-1.49,6.41-2.54a4.59,4.59,0,0,0,1.64-2,4.21,4.21,0,0,0-.24-3.34c-.81-1.39-2.29-1.76-3.69-2.11A7.34,7.34,0,0,0,98,140.64Z"/><path class="cls-4" d="M97.34,142.16a4.47,4.47,0,0,0-1.24,1.09,4.4,4.4,0,0,0-.9,2.11,3.08,3.08,0,0,0,.34,2.27c.74,1,2.25,1,3.09,1a6,6,0,0,0,3-.88,3.82,3.82,0,0,0,1.85-1.7,3.18,3.18,0,0,0,.07-2.28,3.64,3.64,0,0,0-2.19-2A4.73,4.73,0,0,0,97.34,142.16Z"/><path class="cls-6" d="M98.09,143.15a2.72,2.72,0,0,0-1.17.85,2.79,2.79,0,0,0-.41,2.17A2.94,2.94,0,0,0,98.07,148a3.57,3.57,0,0,0,3.45-.51,2.26,2.26,0,0,0,.82-3,2.92,2.92,0,0,0-1.45-1.43A3.47,3.47,0,0,0,98.09,143.15Z"/><path class="cls-2" d="M85.14,158.2c0,5.8-6.73,8-11.76,8s-14.63-6.22-14.63-12,8.49-10.29,13.52-10.29c2.19,0,5.41,1.58,7.8,3.89C83.13,150.79,85.14,154.94,85.14,158.2Z"/><path class="cls-4" d="M72,147.19a8.75,8.75,0,0,0-3.21.61,9.14,9.14,0,0,0-2.84,1.5,6.52,6.52,0,0,0-1.83,2,6.39,6.39,0,0,0-.77,2.72,6.81,6.81,0,0,0,.85,3.66,8.25,8.25,0,0,0,2.6,2.8,10.75,10.75,0,0,0,4.06,2.08,8.36,8.36,0,0,0,5.2-.08,6.57,6.57,0,0,0,2.77-1.87,6.85,6.85,0,0,0,1.54-3.78A9.6,9.6,0,0,0,78.2,150a8.52,8.52,0,0,0-2.11-1.66A8.77,8.77,0,0,0,72,147.19Z"/><path class="cls-2" d="M68.49,149.83a7.74,7.74,0,0,0-2.56,1.75,5.57,5.57,0,0,0-1.67,2.47,5,5,0,0,0,.45,3.5c2,4,8.92,3.68,10.28,3.61a5.19,5.19,0,0,0,3.41-1.09,4.64,4.64,0,0,0,1.46-3,6.29,6.29,0,0,0-1.78-4.75,8.45,8.45,0,0,0-4.35-2.68A8,8,0,0,0,68.49,149.83Z"/><path class="cls-4" d="M69.91,150.64a5.52,5.52,0,0,0-2.11,1.3,4.19,4.19,0,0,0-1.22,1.83,3.38,3.38,0,0,0,.16,2.68c.38.63,1,1,2.36,1.75a5.37,5.37,0,0,0,.61.32,6.65,6.65,0,0,0,4.22.29,4.19,4.19,0,0,0,2.72-1.34,3.8,3.8,0,0,0,.41-3.17,5.57,5.57,0,0,0-4.14-3.78A5.75,5.75,0,0,0,69.91,150.64Z"/><path class="cls-2" d="M71.82,152a3.29,3.29,0,0,0-2.34.47,3.23,3.23,0,0,0-1.29,2.21,3.81,3.81,0,0,0,1.18,3.12,3.74,3.74,0,0,0,4.58.44,3.47,3.47,0,0,0,1.26-2.68A4,4,0,0,0,71.82,152Z"/><path class="cls-7" d="M140.42,141.1c-1.85,3.17-7.25,11.14-10.91,11.14a3,3,0,0,1-2.33-.76c-.41-.45-1.13-1.52,0-5.64a21.7,21.7,0,0,1,4.34-9.24c1.37-1.66,5.09-6.17,7.45-5.24C141.14,132.23,142.27,137.92,140.42,141.1Z"/><path class="cls-8" d="M137.66,134.25a5.78,5.78,0,0,0-3.31,1.78,19,19,0,0,0-4.26,5.88c-1.17,2.52-2.05,4.41-1.17,5.91a3,3,0,0,0,2,1.41c2.28.38,4.36-2.69,7.1-6.74a11,11,0,0,0,2-4.53c.14-.91.43-2.65-.52-3.4A2.37,2.37,0,0,0,137.66,134.25Z"/><path class="cls-9" d="M137.2,134.94a11.47,11.47,0,0,0-4.71,3.76c-2.29,3.3-2.47,6-2.08,7a1.79,1.79,0,0,0,.46.88c.87.65,2.67-.31,3.17-.67a14,14,0,0,0,4.92-8.06c.25-1.39.14-2.21-.35-2.64A1.54,1.54,0,0,0,137.2,134.94Z"/><path class="cls-8" d="M136.71,137.65c-1.16-.23-2.81.92-4.2,2.69s-2.25,4.83-1.37,5.48,3.53-.85,4.81-3S137.24,138.09,136.71,137.65Z"/><path class="cls-4" d="M38.54,111.24c-1.32.13-2,2.21-2.49,3.46-.57,1.59-1.83,5.16-.25,6.51a3.48,3.48,0,0,0,2.26.55,6,6,0,0,0,2.36-.37c.34-.16.72-.23.91-.6,1.09-2.16.8-7.58-1.64-9.19A1.76,1.76,0,0,0,38.54,111.24Z"/><path class="cls-2" d="M38.2,112.42c-1.41.64-1.68,2.59-1.87,3.92-.24,1.67-.58,4.09.82,5a3.19,3.19,0,0,0,3.39-.29c2-1.24,1.05-7-.53-8.71C39.38,111.69,38.28,112.39,38.2,112.42Z"/><path class="cls-4" d="M39,114.35c-.77,0-1.27,1.53-1.46,2.11a5.57,5.57,0,0,0,.11,3.73c.2.57.36,1,.76,1.17.66.28,1.54-.32,2-.87a3.52,3.52,0,0,0,.53-2.69C40.7,116.29,39.85,114.31,39,114.35Z"/><path class="cls-3" d="M39.07,136.58c0,5.6-1.19,7.39-3.47,7.39S28,136.24,28,130.64s1.85-6.95,4.13-6.95S39.07,131,39.07,136.58Z"/><path class="cls-10" d="M30.85,126.67a2.82,2.82,0,0,0-1.86,2.2,4.63,4.63,0,0,0,.05,1.8c.33,2.31.49,3.46.63,4a12.53,12.53,0,0,0,1.88,4.06c.85,1.18,1.6,2.23,2.73,2.29a3.26,3.26,0,0,0,2.39-1.34c2.27-2.82,1-9.17-2.86-11.91A4.78,4.78,0,0,0,30.85,126.67Z"/><path class="cls-11" d="M33.42,128.15a9.09,9.09,0,0,1,1.77,2.29,9.85,9.85,0,0,1,1,3.27c.33,1.95.7,4-.36,4.85a2.49,2.49,0,0,1-2.1.19c-3.62-1.12-5.28-9.24-3.16-10.76C31.14,127.61,32,127.56,33.42,128.15Z"/><path class="cls-10" d="M32.54,129.83c-.86.26-.89,2.3-.9,3.07,0,1.13,0,3.21,1.41,4.46.21.17,1.17,1,1.92.7,1.18-.47.87-3.32.84-3.65A6.21,6.21,0,0,0,34.4,131C34,130.56,33.19,129.63,32.54,129.83Z"/><path class="cls-12" d="M63.32,64.42C59,56.34,50.13,56.21,49.85,56.56c0,0,0,.11,0,.12.82,1.11,7.68,15.24,5.16,22.65-1.57,4.61-2.86,3.94-4.26,10.5a26.8,26.8,0,0,0,.08,12.68,26.28,26.28,0,0,0,7.06,12c5.7,5.46,12.33,6.5,21,7.85,5,.77,10.68,1.61,18.07.23a47.48,47.48,0,0,0,17.59-7.29c6.54-4.15,13.3-8.45,16.17-16.56a38,38,0,0,0,1.66-13.08c-.11-4.47-.37-9.58-.95-8.08-.92,2.36-8.64,9.57-9.43,9.09-.54-.34,2.86-4.95,4-12a29.9,29.9,0,0,0-.46-12,33.2,33.2,0,0,0-4.09-9.26c-2.24-3.82-2.17-2.36-5.73-7.77-1-1.47-2-2.76-2.2-2.3-.57,1.71-3.08,5.16-3.68,7.57-1,3.92-1.47,5.89-1.22,8.38.2,2.14.85,4.39-.41,6.6-.18.31-.6,1-1,1-.82-.14-.66-3.93-.86-7.67a67.62,67.62,0,0,0-1.64-10.74c-1.23-6-2-6.12-4.2-14.45-1.35-5.2-2-7.8-2.15-10.54-.3-7.16,2-11,.82-11.67-.52-.3-1.65,0-11.46,10.54-5.69,6.11-7.5,8.36-9.31,11.57A28.41,28.41,0,0,0,75,42.11c-1.39,6,.55,7.26-.82,11-.19.52-2.48-2.19-3.58-6.85-.48-2-2-3.27-3.58-4.61-2.35-2-6.18-3.75-7.27-2.66-1.25,1.25,2.69,4.64,2.76,11.26,0,2.87-.69,3.2-.51,6.45C62.28,61.59,63.82,65.37,63.32,64.42Z"/><path class="cls-13" d="M76.12,81.06c-.73.08-3-6.93-4.21-8.23-3-3.27-7.79-5.24-7.44-3.68.39,1.76,3.21,5.31,2.36,11.74-.34,2.56-1.18,2.79-2.28,7.79-.65,3-1,4.65-.87,6.66a16.33,16.33,0,0,0,4,9.11c4.89,6.08,12,7.7,13.92,8.14,3.09.71,3.62.23,8.59,1.32,4.79,1,5.31,1.7,8,2a20.84,20.84,0,0,0,11.38-2.1,21.3,21.3,0,0,0,10-11.65c2.18-6.41.28-11.82-3.07-21.37-1.77-5-6-12.26-5.87-10.51.36,3.55-4,16.27-6.56,16.29-2.08,0-2.73-10.23-5.17-19.27-3.52-13-1.6-19-2.28-21.28C96,44,94.07,48.92,85,57.68c-4.56,4.38-5.48,7.15-7,11C75.47,75,77,81,76.12,81.06Z"/><path class="cls-14" d="M129.08,54.3c-.17.12,1.21,1.8,1.64,4.54a6.1,6.1,0,0,1,0,2.52c-.23.91-.54,1-.84,2.24-.35,1.41-.12,2,.09,2.34a.81.81,0,0,0,.47.42c.73.15,1.61-1.6,1.77-1.92a6.41,6.41,0,0,0,.8-3.64,8.08,8.08,0,0,0-1.54-3.6C130.44,55.53,129.24,54.2,129.08,54.3Z"/><path class="cls-15" d="M92.36,62.26a94.18,94.18,0,0,0-6.64,8.15c-.55,1.19-2.9,6.54-3.32,15.68-.25,5.55.31,10.19-.2,10.26S81.62,94,79.79,91c-1.47-2.34-3.91-4.91-4.93-4.42-.57.27-.34,1.35-.3,4.12.08,5.92-.88,6.84-.1,9.75a13.11,13.11,0,0,0,2.71,5c4.77,6,12.51,6.8,16.59,7.24,3.65.39,6.35.68,9.15-.8.64-.34,2.38-2.14,5.84-5.73s4.22-4.43,5-6.24A16,16,0,0,0,115,95.14c.16-1.19.3-2.93-.5-9.65-.67-5.58-1-5.93-1.11-5.93-.41,0-.54,2.17-1.81,6.64a18.54,18.54,0,0,1-1.91,5,14.8,14.8,0,0,1-3.52,3.72c-2.83,2.34-4.45,3.67-5.83,3.22-2.77-.91-2.62-8.31-2.61-8.65.07-2.67.7-3.25.6-6.33a27.91,27.91,0,0,0-.81-5.43c-.45-2.16-.94-3.78-1.91-6.94C93.86,65.21,92.82,61.8,92.36,62.26Z"/><path class="cls-12" d="M105.73,3.86c-.48.3,3.63,5.52,2.09,9.8a14.78,14.78,0,0,0-.66,2c-.47,1.92-.67,4.77.09,5.05s2.52-1.81,3.24-4.1a10.6,10.6,0,0,0-.67-7.14C108.47,6,106.07,3.65,105.73,3.86Z"/><path class="cls-12" d="M70.42,24.23s-.21.24-.21.24c-1.53,2.63-2.3,4-2.55,5.09a9.85,9.85,0,0,0,.76,7c.27.46.88,1.53,1.33,1.42.65-.15.9-2.67.1-4.85-.41-1.1-.66-1-.95-1.81C67.81,28.14,70.59,24.31,70.42,24.23Z"/></g></g></svg>