<svg xmlns="http://www.w3.org/2000/svg" viewBox="0 0 114.59 162.89"><defs><style>.cls-1,.cls-3{fill:#323235;}.cls-1,.cls-4{stroke:#d9d9d9;stroke-miterlimit:10;}.cls-2,.cls-4{fill:#d9d9d9;}.cls-5{fill:#4d4c4c;}</style></defs><title>bonfire-dark</title><g id="Layer_6" data-name="Layer 6"><g id="Layer_30" data-name="Layer 30"><path class="cls-1" d="M49.16,108.1c-6.2-.09-35.92-2.41-38.91-2.25-.2,0,.41.16,1.09,1.18A13.75,13.75,0,0,1,13,110.55a10.57,10.57,0,0,1,.79,3.83,13.39,13.39,0,0,1-.27,3.08c-.09.28.71.06.8,0C17.57,116.62,52,108.14,49.16,108.1Z"/><path class="cls-2" d="M14.91,114.71c-.22,2.81,0,2.82-4.13,3.93-3.17.85-3.58,1.47-4.64-1.12-1.43-3.51,1.42-12,4.39-12S15.13,111.84,14.91,114.71Z"/><path class="cls-1" d="M3.27,120.66c6.15-1.64,44.29-12.18,47.43-13a6.27,6.27,0,0,1,1.46-.17,3.42,3.42,0,0,1,1.94.34c.82.5.73,1.22,1.36,1.34.32.06.67-.11,1.39-.45a6.45,6.45,0,0,1,1.09-.55,2.66,2.66,0,0,1,1.27,0,8,8,0,0,0,3.68-.15c.92-.35.67-.72,1.7-1.25a6.1,6.1,0,0,1,3.87-.35,8.53,8.53,0,0,1,2.7,1c3,1.73,6.28,3,9.32,4.63,9.63,5.32,27.13,14.54,30.46,15.91a5.91,5.91,0,0,0-3.48,1.09,23.07,23.07,0,0,0-6.49,7.76c-1.08,2-2.56,8.92-2.33,10.1.07.34-.91-.66-1-.76-4.74-3.4-20.46-19.22-19.81-17.79.41.89,3.77,9.51,4,10.37.14.52-3.26-4.26-4.63-4.77a16.42,16.42,0,0,0-6.11-1.19A10.57,10.57,0,0,0,65.24,135c-3.14,2.63-3.47,9.07-3.73,9.53-.49.89-2.09-13.37-2.25-13.89s-2.61,21.85-2.91,22.5,0-2.88-2.14-5.83a19.44,19.44,0,0,0-5-4.85,9,9,0,0,0-3.88-1.77,11.37,11.37,0,0,0-5.14.43,15.45,15.45,0,0,0-5.76,3.45,12,12,0,0,0-2,2.59c0-1.21,5.4-13.14,9.62-21,0,0,.73-1.12.54-1-5.06,1.73-24.75,17.26-21.13,14.89-.67.44-2.57-1.94-1.82-2.36,4-2.27,8.92-5.48,8.92-5.47s-17.2,6.36-18.53,7.26a5.27,5.27,0,0,1-1.32.29c-.14-.13,1.23-1,1.32-1.17.92-1.55.86-5,.55-7.15a18.13,18.13,0,0,0-2.35-6.55C6.34,121.2,2.56,120.85,3.27,120.66Z"/><path class="cls-1" d="M71.34,107.73c7.81-.06,37.56-2.1,37.56-2.1h0l1.06.78a11.44,11.44,0,0,1,2.92,4.09,17.09,17.09,0,0,1,.86,9.74c-.58,2.3-2.79,6.3-4.63,6a8,8,0,0,1-3-1C85.37,114,68.85,107.75,71.34,107.73Z"/><path class="cls-2" d="M82.91,142.23c0,5.8-6.86,9-11.88,9s-9.85-1.82-9.85-7.62a11.08,11.08,0,0,1,4.41-8.91,11.94,11.94,0,0,1,6.45-2C77.07,132.7,82.91,136.43,82.91,142.23Z"/><path class="cls-3" d="M69.78,135.5a7.37,7.37,0,0,0-4.34,3.32,6.12,6.12,0,0,0-1.08,4.12,6,6,0,0,0,2.29,3.8c2.91,2.35,6.75,1.23,7.46,1a6.65,6.65,0,0,0,4.34-3.29,5.94,5.94,0,0,0,.16-4.24,7.11,7.11,0,0,0-3.85-4.15A7.24,7.24,0,0,0,69.78,135.5Z"/><path class="cls-2" d="M70,137.3a6.62,6.62,0,0,0-2.32,1.36,6.45,6.45,0,0,0-1.86,3.07,4.69,4.69,0,0,0,.22,3.56c1,1.68,3.25,1.85,4.09,1.92,3,.23,5.09-1.49,6.41-2.54a4.64,4.64,0,0,0,1.64-2,4.21,4.21,0,0,0-.25-3.35c-.8-1.39-2.28-1.76-3.68-2.1A7.29,7.29,0,0,0,70,137.3Z"/><path class="cls-3" d="M69.34,138.81a4.82,4.82,0,0,0-1.24,1.09,4.44,4.44,0,0,0-.89,2.12,3.05,3.05,0,0,0,.34,2.26c.74,1,2.24,1,3.08,1a6,6,0,0,0,3-.88,3.71,3.71,0,0,0,1.84-1.7,3.15,3.15,0,0,0,.08-2.28,3.61,3.61,0,0,0-2.19-2A4.74,4.74,0,0,0,69.34,138.81Z"/><path class="cls-2" d="M70.1,139.81a2.64,2.64,0,0,0-1.17.85,2.68,2.68,0,0,0-.41,2.16,2.88,2.88,0,0,0,1.55,1.87,3.55,3.55,0,0,0,3.45-.51,2.31,2.31,0,0,0,.9-1,2.48,2.48,0,0,0-.07-2,2.88,2.88,0,0,0-1.46-1.44A3.4,3.4,0,0,0,70.1,139.81Z"/><path class="cls-2" d="M57.14,154.86c0,5.8-6.73,8-11.75,8s-14.63-6.23-14.63-12,8.49-10.28,13.51-10.28c2.2,0,5.42,1.58,7.8,3.89C55.14,147.44,57.14,151.6,57.14,154.86Z"/><path class="cls-3" d="M44,143.84a8.92,8.92,0,0,0-3.21.61,9.27,9.27,0,0,0-2.85,1.5,6.81,6.81,0,0,0-1.82,2,6.44,6.44,0,0,0-.78,2.72,6.77,6.77,0,0,0,.86,3.65,8.39,8.39,0,0,0,2.6,2.81,10.83,10.83,0,0,0,4.06,2.07,8.35,8.35,0,0,0,5.2-.08,6.62,6.62,0,0,0,2.76-1.87,6.83,6.83,0,0,0,1.55-3.78,8.41,8.41,0,0,0-.45-3.78,8.1,8.1,0,0,0-1.71-3.08A8.25,8.25,0,0,0,48.09,145,8.87,8.87,0,0,0,44,143.84Z"/><path class="cls-2" d="M40.49,146.48a7.74,7.74,0,0,0-2.56,1.75,5.59,5.59,0,0,0-1.66,2.48,4.94,4.94,0,0,0,.45,3.49c2,4,8.92,3.69,10.27,3.62a5.2,5.2,0,0,0,3.42-1.1,4.75,4.75,0,0,0,1.46-3A6.36,6.36,0,0,0,50.08,149a8.43,8.43,0,0,0-4.34-2.68A8.1,8.1,0,0,0,40.49,146.48Z"/><path class="cls-3" d="M41.92,147.3a5.47,5.47,0,0,0-2.12,1.3,4.32,4.32,0,0,0-1.22,1.82,3.47,3.47,0,0,0,.17,2.69c.38.63,1,1,2.35,1.74l.61.33a6.66,6.66,0,0,0,4.23.28,4.19,4.19,0,0,0,2.72-1.34,3.88,3.88,0,0,0,.41-3.17,5.7,5.7,0,0,0-7.15-3.65Z"/><path class="cls-2" d="M43.82,148.66a3.25,3.25,0,0,0-2.34.48,3.21,3.21,0,0,0-1.29,2.2,3.77,3.77,0,0,0,1.19,3.12,3.71,3.71,0,0,0,4.58.44,3.46,3.46,0,0,0,1.26-2.68A4,4,0,0,0,43.82,148.66Z"/><path class="cls-4" d="M112.42,137.75c-1.84,3.17-7.24,11.14-10.91,11.14a3,3,0,0,1-2.32-.76c-.42-.44-1.14-1.52,0-5.63a21.76,21.76,0,0,1,4.35-9.25c1.37-1.66,5.09-6.16,7.45-5.24S114.27,134.57,112.42,137.75Z"/><path class="cls-3" d="M109.66,130.9a5.89,5.89,0,0,0-3.31,1.78,19.22,19.22,0,0,0-4.25,5.88c-1.17,2.52-2,4.41-1.17,5.92a3.08,3.08,0,0,0,2,1.41c2.28.38,4.37-2.7,7.11-6.74a11,11,0,0,0,2-4.54c.15-.9.43-2.65-.52-3.4A2.41,2.41,0,0,0,109.66,130.9Z"/><path class="cls-2" d="M109.21,131.59a11.59,11.59,0,0,0-4.72,3.76c-2.28,3.31-2.47,6-2.07,7a1.61,1.61,0,0,0,.46.88c.86.66,2.67-.31,3.16-.67a14,14,0,0,0,4.93-8c.25-1.4.14-2.21-.35-2.64A1.55,1.55,0,0,0,109.21,131.59Z"/><path class="cls-3" d="M108.72,134.3c-1.16-.22-2.81.92-4.21,2.7s-2.25,4.82-1.37,5.48,3.53-.86,4.82-3S109.24,134.75,108.72,134.3Z"/><path class="cls-3" d="M10.54,107.89c-1.31.13-2,2.22-2.49,3.46-.56,1.59-1.82,5.16-.24,6.51a3.41,3.41,0,0,0,2.26.55,5.92,5.92,0,0,0,2.35-.37c.35-.15.73-.23.91-.59,1.1-2.16.81-7.59-1.63-9.19A1.74,1.74,0,0,0,10.54,107.89Z"/><path class="cls-2" d="M10.21,109.08c-1.41.64-1.69,2.58-1.87,3.91-.24,1.68-.58,4.09.81,5a3.19,3.19,0,0,0,3.39-.29c2-1.24,1.05-7-.52-8.7C11.39,108.34,10.28,109,10.21,109.08Z"/><path class="cls-3" d="M11,111c-.77,0-1.26,1.52-1.46,2.1a5.66,5.66,0,0,0,.12,3.74c.2.57.35,1,.76,1.17.65.27,1.54-.32,2-.88a3.46,3.46,0,0,0,.52-2.69C12.71,112.94,11.85,111,11,111Z"/><path class="cls-2" d="M11.08,133.24c0,5.6-1.2,7.39-3.48,7.39S0,132.9,0,127.3s1.85-7,4.13-7S11.08,127.64,11.08,133.24Z"/><path class="cls-3" d="M2.86,123.33A2.81,2.81,0,0,0,1,125.52a4.44,4.44,0,0,0,.05,1.8c.33,2.31.49,3.47.63,4a12.32,12.32,0,0,0,1.88,4.06c.85,1.18,1.6,2.23,2.72,2.29a3.22,3.22,0,0,0,2.4-1.33c2.27-2.83,1-9.18-2.86-11.91A4.8,4.8,0,0,0,2.86,123.33Z"/><path class="cls-2" d="M5.43,124.81A9,9,0,0,1,7.2,127.1a9.67,9.67,0,0,1,1,3.27c.34,1.95.7,4-.35,4.85a2.56,2.56,0,0,1-2.1.19c-3.62-1.12-5.28-9.25-3.16-10.77C3.15,124.27,4,124.22,5.43,124.81Z"/><path class="cls-3" d="M4.55,126.48c-.86.26-.89,2.31-.9,3.08,0,1.13,0,3.2,1.41,4.45.2.18,1.17,1,1.92.71,1.17-.47.87-3.32.83-3.66a6.08,6.08,0,0,0-1.41-3.39C6,127.21,5.2,126.29,4.55,126.48Z"/><path class="cls-1" d="M35.33,61.07C31,53,22.14,52.86,21.86,53.22c0,0,0,.1,0,.11.81,1.11,7.68,15.24,5.16,22.65-1.57,4.62-2.86,4-4.26,10.5a26.81,26.81,0,0,0,.08,12.68,26.29,26.29,0,0,0,7.05,12c5.7,5.45,12.34,6.49,21,7.84,5,.78,10.69,1.61,18.07.24A48,48,0,0,0,86.6,112c6.53-4.15,13.3-8.45,16.16-16.57a37.84,37.84,0,0,0,1.67-13.07c-.11-4.47-.37-9.59-1-8.09-.92,2.37-8.64,9.58-9.43,9.09-.55-.33,2.85-5,4-12a30.09,30.09,0,0,0-.46-12,33,33,0,0,0-4.09-9.25c-2.24-3.82-2.17-2.37-5.73-7.78-1-1.47-2-2.76-2.2-2.3-.57,1.71-3.08,5.16-3.68,7.57-1,3.93-1.47,5.89-1.23,8.39.21,2.13.86,4.39-.41,6.59-.18.32-.59,1-1,1-.83-.15-.66-3.94-.87-7.67a66.09,66.09,0,0,0-1.63-10.74c-1.24-6-2-6.13-4.2-14.46-1.36-5.19-2-7.79-2.15-10.54-.31-7.15,2-11,.82-11.66-.52-.3-1.65,0-11.46,10.54-5.69,6.11-7.5,8.36-9.32,11.56A28.64,28.64,0,0,0,47,38.77c-1.39,6,.56,7.26-.81,10.95-.2.51-2.49-2.2-3.59-6.86-.47-2-2-3.27-3.58-4.6-2.34-2-6.18-3.75-7.26-2.66-1.25,1.24,2.68,4.63,2.76,11.25,0,2.87-.69,3.21-.51,6.45C34.28,58.24,35.83,62,35.33,61.07Z"/><path class="cls-5" d="M48.12,77.71c-.73.08-3-6.93-4.2-8.23-3-3.27-7.8-5.24-7.45-3.68.4,1.77,3.22,5.32,2.37,11.74-.34,2.56-1.19,2.79-2.28,7.79-.66,3-1,4.65-.87,6.66a16.36,16.36,0,0,0,4,9.11c4.89,6.08,12,7.71,13.93,8.15,3.09.7,3.62.23,8.58,1.31,4.8,1,5.32,1.71,8,2a20.86,20.86,0,0,0,11.39-2.1,21.21,21.21,0,0,0,10-11.65c2.19-6.4.29-11.81-3.06-21.37-1.77-5-6-12.26-5.87-10.51.36,3.56-4,16.28-6.57,16.29C74,83.25,73.34,73,70.89,64c-3.51-13-1.59-19-2.27-21.28-.62-2-2.54,2.89-11.65,11.65-4.56,4.38-5.48,7.16-7,11C47.48,71.67,49,77.63,48.12,77.71Z"/><path class="cls-1" d="M101.09,51c-.18.11,1.21,1.79,1.63,4.53a5.78,5.78,0,0,1,0,2.52c-.22.91-.54,1-.84,2.25-.35,1.4-.12,2,.1,2.33.11.17.24.38.46.42.74.15,1.62-1.6,1.78-1.91a6.47,6.47,0,0,0,.79-3.65,7.9,7.9,0,0,0-1.54-3.6C102.44,52.18,101.25,50.85,101.09,51Z"/><path class="cls-2" d="M64.36,58.92a95.4,95.4,0,0,0-6.63,8.14c-.55,1.19-2.9,6.54-3.32,15.69-.26,5.55.31,10.19-.2,10.25s-.59-2.39-2.42-5.32c-1.46-2.35-3.91-4.92-4.92-4.43-.57.28-.34,1.35-.31,4.12.09,5.92-.88,6.84-.1,9.76a13.26,13.26,0,0,0,2.72,5c4.76,6,12.51,6.8,16.59,7.24,3.65.4,6.34.69,9.15-.8.64-.34,2.38-2.14,5.83-5.73s4.23-4.43,5-6.24A15.9,15.9,0,0,0,87,91.8c.15-1.19.29-2.94-.51-9.66-.66-5.58-.94-5.93-1.1-5.93-.41,0-.54,2.17-1.81,6.64a18.53,18.53,0,0,1-1.91,5,15,15,0,0,1-3.52,3.72c-2.84,2.34-4.45,3.67-5.83,3.21-2.77-.9-2.63-8.3-2.62-8.64.08-2.68.7-3.26.61-6.34a29.53,29.53,0,0,0-.81-5.43c-.45-2.15-.94-3.78-1.91-6.94C65.87,61.87,64.83,58.45,64.36,58.92Z"/><path class="cls-1" d="M77.74.51c-.48.3,3.63,5.52,2.09,9.81a14.45,14.45,0,0,0-.67,2c-.46,1.92-.67,4.76.1,5s2.51-1.81,3.23-4.09a10.53,10.53,0,0,0-.66-7.14C80.48,2.66,78.07.3,77.74.51Z"/><path class="cls-1" d="M42.42,20.88c-.05,0-.2.24-.2.24-1.53,2.64-2.3,3.95-2.56,5.09a9.93,9.93,0,0,0,.77,6.95c.26.47.88,1.53,1.33,1.43.64-.16.9-2.68.09-4.86-.4-1.1-.65-1-1-1.81C39.81,24.79,42.59,21,42.42,20.88Z"/></g></g></svg>