<svg id="Layer_1" data-name="Layer 1" xmlns="http://www.w3.org/2000/svg" viewBox="0 0 72.99 49.78"><defs><style>.cls-1{fill:#fff;}</style></defs><title>arrow-white</title><rect class="cls-1" y="22.14" width="70" height="5.5"/><path class="cls-1" d="M42.1,11.57H74.63A2.47,2.47,0,0,1,77.1,14v3a0,0,0,0,1,0,0h-35a0,0,0,0,1,0,0v-5.5a0,0,0,0,1,0,0Z" transform="translate(27.58 -37.95) rotate(45)"/><path class="cls-1" d="M42.1,32.71h35a0,0,0,0,1,0,0V36a2.25,2.25,0,0,1-2.25,2.25H42.1a0,0,0,0,1,0,0v-5.5A0,0,0,0,1,42.1,32.71Z" transform="translate(-7.62 52.53) rotate(-45)"/></svg>