<svg xmlns="http://www.w3.org/2000/svg" viewBox="0 0 136.73 136.74"><defs><style>.cls-1{fill:#4d4c4b;}.cls-12,.cls-2{opacity:0.2;}.cls-3,.cls-4{fill:#ecc4a3;}.cls-4{stroke:#ecc4a3;}.cls-10,.cls-13,.cls-16,.cls-17,.cls-24,.cls-25,.cls-26,.cls-27,.cls-29,.cls-4,.cls-9{stroke-miterlimit:10;}.cls-5{fill:#432718;}.cls-6{fill:#f8f7f7;}.cls-7{fill:#c45e67;}.cls-8{fill:#875639;}.cls-16,.cls-27,.cls-29,.cls-9{fill:none;}.cls-10,.cls-16,.cls-17,.cls-25,.cls-26,.cls-27,.cls-9{stroke:#1d1d1b;}.cls-10,.cls-12,.cls-18,.cls-25,.cls-26{fill:#1d1d1b;}.cls-11{fill:#3a3731;}.cls-13{fill:#581d1e;stroke:#581d1e;}.cls-14{fill:#251637;}.cls-15{fill:#6f4c99;}.cls-16{stroke-width:1.58px;}.cls-17{fill:#fff;stroke-width:0.95px;}.cls-19{fill:#b29148;}.cls-20{fill:#2e5277;}.cls-21{fill:#5d9a51;}.cls-22{fill:#7c2118;}.cls-23{fill:#3e3c3f;}.cls-24,.cls-28{fill:#dda37b;}.cls-24,.cls-29{stroke:#c4916e;}.cls-24,.cls-27,.cls-29{stroke-width:0.14px;}.cls-25{stroke-width:0.27px;}.cls-26{stroke-width:0.23px;}</style></defs><title>Forside-billede</title><g id="Layer_2" data-name="Layer 2"><circle class="cls-1" cx="70.17" cy="69.29" r="62.5"/><ellipse class="cls-2" cx="93.12" cy="115.45" rx="14.16" ry="2.67"/><ellipse class="cls-3" cx="108.38" cy="90.78" rx="2.21" ry="2.14"/><path class="cls-4" d="M69.61,45.72A3.42,3.42,0,0,0,67.05,44c-2-.13-3.23,2.08-3.35,2.29a5.41,5.41,0,0,0,0,4.79,4.25,4.25,0,0,0,1.84,2.1,4.36,4.36,0,0,0,4.33-.39c.09-.06.22-.07.22-.16,0-.32,0-.66,0-1.09,0-.61,0-1.34,0-2.08C70.15,48.17,70.33,46.94,69.61,45.72Z"/><path class="cls-4" d="M116.19,45.72a3.42,3.42,0,0,1,2.56-1.7c2-.13,3.23,2.08,3.35,2.29a5.41,5.41,0,0,1,0,4.79,4.25,4.25,0,0,1-1.84,2.1,4.36,4.36,0,0,1-4.33-.39c-.08-.06-.22-.07-.21-.16,0-.32,0-.66,0-1.09,0-.61,0-1.34,0-2.08C115.65,48.17,115.48,46.94,116.19,45.72Z"/><ellipse class="cls-3" cx="77.83" cy="90.17" rx="2.21" ry="2.14"/><rect class="cls-5" x="84.69" y="86.5" width="16.86" height="9.3" rx="3.13"/><path class="cls-6" d="M99.58,66c-1.49-2.4-10.19-2.45-12.36.13-2.9,3.46,2.1,12.6,5.45,12.72,3.07.11,5.87-6.79,5.57-10.79C98.22,67.78,99.89,66.5,99.58,66Z"/><path class="cls-6" d="M110.52,90.24c.44,0,.69-2.44.73-4.25a21.18,21.18,0,0,0-5.11-14.76c-2.67-3.25-6.32-5.74-8.28-5.9-.54,0,2.07-.18,1.47.13-3,1.55-2.55,9.25-3.88,10.76-.84,1-3.29.7-4.12.07-2.42-1.83-2-10.68-4.33-10.92-.12,0,.35-.06.11,0a5.21,5.21,0,0,1-1.72,1.51c-3.36,1.29-5.08,4.23-6.55,7.35a25.2,25.2,0,0,0-2.31,6.37c-1.06,5.21-1.09,9.11-.8,9.18,1.79.45,2.55.8,4.17,1.07.33.05.35-1.53.52-2.15,0,0,.38-3.12,1.08-7.55.48-3.11,2.17-6,2.92-5.89s.64,2.26.67,4.09c.12,6.46-1.55,10.42-.13,11.29a3.4,3.4,0,0,0,1.45.48c6.55.32,13.8.81,15.08-.78.54-.68.17-1.43-.09-2.86C100.2,81,101,74.1,102,73.93c.8-.14,2.2,3.73,3.54,7.1,1.83,4.57,0,9.14.7,9.14C108.48,90.2,109.05,90.23,110.52,90.24Z"/><polygon class="cls-7" points="86.44 66.13 91.72 66.13 91.72 65.97 86.51 65.97 86.44 66.13"/><polygon class="cls-7" points="91.1 66.13 100.11 66.11 99.98 65.96 91.1 65.93 91.1 66.13"/><polygon class="cls-7" points="93.99 80.71 93.16 82.72 92.33 80.71 92.51 67.8 93.83 67.8 93.99 80.71"/><path class="cls-7" d="M94.73,66a1.62,1.62,0,1,1-3.13,0"/><rect class="cls-8" x="68.54" y="21.29" width="48.66" height="44.73" rx="16.36"/><path class="cls-3" d="M72.41,35.86c-1.71,3.49-1.86,13.44-.21,18.32.51,1.53,2.27,1,3.17,1C90.15,54,104,56.39,112.89,54a.82.82,0,0,0,.55-.71c.61-8,.33-16.89.13-17.23s-.1-.26-.92-.42c-5.39-1.05-6.83-6.22-9.52-5.39-1.41.44-1.24.84-5,2.17a34.05,34.05,0,0,1-4.73,1.19C84.91,35.14,74.85,30.9,72.41,35.86Z"/><path class="cls-9" d="M87.49,57.22a7.27,7.27,0,0,0,3.75,2.85,7.94,7.94,0,0,0,8.16-2.75"/><ellipse class="cls-10" cx="104.03" cy="47.79" rx="2.98" ry="3.81"/><ellipse class="cls-10" cx="82.16" cy="47.79" rx="2.98" ry="3.81"/><rect class="cls-5" x="94.18" y="93.71" width="4.86" height="19.48"/><rect class="cls-5" x="87.47" y="94.32" width="4.86" height="19.48"/><path class="cls-11" d="M92.2,112c-.08-.28-6.68-.16-7-.15a2.84,2.84,0,0,0-1.52,1.27c-.56,1.06-.32,2.63.6,3.11a2,2,0,0,0,1,.13c3.42,0,5.63,0,6.56.09a.32.32,0,0,0,.14,0c.68-.18.31-3.32.34-3.94a1.28,1.28,0,0,0,0-.34A.81.81,0,0,0,92.2,112Z"/><path class="cls-11" d="M94.22,111.89c.11-.27,7,.18,7.39.2a2.94,2.94,0,0,1,1.53,1.32,2.28,2.28,0,0,1-.79,3,2.15,2.15,0,0,1-1,.08c-3.6-.12-5.92-.28-6.9-.23a.41.41,0,0,1-.15,0c-.71-.21-.16-3.28-.15-3.89a1.51,1.51,0,0,1,0-.34S94.19,112,94.22,111.89Z"/><ellipse class="cls-12" cx="117.1" cy="115.47" rx="7.64" ry="1.33"/><ellipse class="cls-2" cx="37.16" cy="115.45" rx="14.16" ry="2.67"/><rect class="cls-13" x="30.45" y="65.88" width="14.24" height="2.89"/><path class="cls-4" d="M47.67,66.14H26.2c-6.6,0-11.81-6.53-11.81-12.68v-19c0-6.16,5.05-10,11.65-10l21.44-.12c6.6,0,12.44,4,12.44,10.12v19C59.92,59.61,54.27,66.14,47.67,66.14Z"/><ellipse class="cls-10" cx="26.2" cy="48.02" rx="2.98" ry="3.81"/><ellipse class="cls-10" cx="48.21" cy="48.02" rx="2.98" ry="3.81"/><path class="cls-9" d="M31.33,56.28a7.27,7.27,0,0,0,3.75,2.85,7.93,7.93,0,0,0,8.15-2.75"/><path class="cls-13" d="M73.8,60.49a4.74,4.74,0,0,0-4-4.62c-.07-.25-.15-.51-.23-.78a4.19,4.19,0,0,0,1-2.77,4.28,4.28,0,0,0-3.21-4.13c-.14-.44-.27-.85-.38-1.22a4.78,4.78,0,0,0,1.49-3.5,4.53,4.53,0,0,0-2.72-4.28,9.26,9.26,0,0,0-.28-2.71,3.31,3.31,0,0,0,.06-.55,3.65,3.65,0,0,0-3.21-3.52,4.36,4.36,0,0,0-1-.68,4.15,4.15,0,0,0,1.11-2.79A4.38,4.38,0,0,0,58,24.67a4.88,4.88,0,0,0-1.34.21,3.41,3.41,0,0,0-.29-.61,2.19,2.19,0,0,0,.51-1.34c0-1.53-1.75-2.76-3.9-2.76-2,0-3.54,1-3.84,2.33l-.11,0a1.42,1.42,0,0,0-.32-.53,2.12,2.12,0,0,0,1.48-1.84c0-1.18-1.3-2.13-2.91-2.13s-2.9.95-2.9,2.13c0,0,0,0,0,0l-.55-.1a2.09,2.09,0,0,0,.54-1.36c0-1.43-1.61-2.6-3.6-2.6s-3.6,1.17-3.6,2.6a2,2,0,0,0,.32,1.07c-.38,0-.74.05-1.1.09a2.46,2.46,0,0,0,.27-1.11,3,3,0,0,0-5.89,0,2,2,0,0,0,0,.25,3.25,3.25,0,0,0-5.94,1.84,3.45,3.45,0,0,0,.05.57,4,4,0,1,0-4.4,6.47c-.26.07-.5.15-.73.23a3.64,3.64,0,0,0-3.18-2.47c-2,0-3.67,2.17-3.67,4.85a5.62,5.62,0,0,0,1.21,3.58,1.72,1.72,0,0,0-.48.17,2.73,2.73,0,0,0-2.29-1.8c-1.58,0-2.86,2-2.86,4.46s1.28,4.47,2.86,4.47a1.28,1.28,0,0,0,.27-.05,3,3,0,0,0,.07.32,3.19,3.19,0,0,0-1.22-.27c-2.06,0-3.74,2.12-3.74,4.74a5.44,5.44,0,0,0,1.06,3.29A2.26,2.26,0,0,0,7,49.28c-1.66,0-3,1.86-3,4.15A4.62,4.62,0,0,0,5.46,57l0,.08a3.63,3.63,0,0,0-1.1-.19,4.05,4.05,0,0,0,0,8.09,3.64,3.64,0,0,0,1.58-.37,4.18,4.18,0,0,0-1.18,2.9A4.33,4.33,0,0,0,9.1,71.77a4.41,4.41,0,0,0,3.12-1.27,6.42,6.42,0,0,0,4,1.27,6.13,6.13,0,0,0,4.41-1.62,2.08,2.08,0,0,0,1.33.51A2.28,2.28,0,0,0,24,69.09a1.88,1.88,0,0,0,1.42.66,1.93,1.93,0,0,0,1-.31,2.61,2.61,0,0,0,2.28,1.24,2.29,2.29,0,1,0,0-4.54,2.78,2.78,0,0,0-1.77.62,1.89,1.89,0,0,0-3.1,0A2.22,2.22,0,0,0,22,65.47H21.9A2.83,2.83,0,0,0,20,63.76a3.32,3.32,0,0,0,1-2.35,3.48,3.48,0,0,0-1.81-3,14.18,14.18,0,0,1,.14-2.18,4,4,0,0,0,1.62-3.14,4.19,4.19,0,0,0-2.75-3.8c0-.21.06-.43.07-.62a4.15,4.15,0,0,0-.33-8.27,3.93,3.93,0,0,0-.59.06l0-.4a.9.9,0,0,0,.16.18,1,1,0,0,0,.57.16,31.43,31.43,0,0,0,13-3.48c3.74-1.7,6-4.07,7.93-5.72,3.39-2.83,4.71-5.14,5.45-4.59.26.19.15.52.27,1.26.37,2.48,2.32,4,4.1,5.49,5,4.22,6.3,6.31,7.26,6.53l.18.26a4.43,4.43,0,0,0-.06,7.77c0,.15-.05.3-.07.44A3.71,3.71,0,0,0,53.68,52a3.86,3.86,0,0,0,1.87,3.42c0,.63.11,1.16.17,1.63a5.89,5.89,0,0,0-1.33,4,7.17,7.17,0,0,0,.23,1.83,9.51,9.51,0,0,0-1.21,2.33h-.1a3.77,3.77,0,0,0-3,1.38,4.88,4.88,0,0,0-2.74-.77c-2.08,0-3.78,1.09-3.78,2.44s1.7,2.44,3.78,2.44a4.78,4.78,0,0,0,2.91-.9A3.85,3.85,0,0,0,53.31,71a3.9,3.9,0,0,0,2.63-1l.13,0a3.36,3.36,0,0,0,3.07,1.82,3.17,3.17,0,0,0,3.32-3s0-.06,0-.09l.06,0c.26,1.53,2,2.71,4,2.71,2.25,0,4.08-1.39,4.08-3.1a2.69,2.69,0,0,0-1-2A4,4,0,0,0,70.36,65,4.72,4.72,0,0,0,73.8,60.49ZM19.68,33.11m12.2-12.24c-.19.07-.37.15-.54.23,0-.07,0-.14,0-.21a3.43,3.43,0,0,0-.06-.56A3,3,0,0,0,31.88,20.87Zm-5.67,2.68L26,23.6c0-.1,0-.2-.07-.3Z"/><path class="cls-3" d="M28,72.79c1.48-.68,3.54,1.1,3.53,2a.63.63,0,0,1-.17.37,7.73,7.73,0,0,0-1.08,3.11,25.64,25.64,0,0,0-.56,7c.07,2.28,1,6.07,0,7.18a1.28,1.28,0,0,1-.35.29c-.8.44-1.58-.26-2.26-.87a2.74,2.74,0,0,1-.93-1.55A28.72,28.72,0,0,1,26,81.86C26.84,75.51,26.78,73.36,28,72.79Z"/><rect class="cls-3" x="38.44" y="93.61" width="3.63" height="19.48"/><path class="cls-3" d="M47.2,73.16c-1.48-.68-3.54,1.09-3.53,2a.64.64,0,0,0,.17.38,7.64,7.64,0,0,1,1.08,3.1,25.28,25.28,0,0,1,.56,7c-.07,2.29-1,6.08,0,7.19a1.15,1.15,0,0,0,.35.28c.8.45,1.58-.26,2.26-.86A2.73,2.73,0,0,0,49,90.64a28.72,28.72,0,0,0,.28-8.42C48.39,75.88,48.45,73.73,47.2,73.16Z"/><rect class="cls-3" x="32.72" y="94.61" width="3.63" height="19.48"/><path class="cls-14" d="M32.84,84.24a3.89,3.89,0,0,0-1.47,2.65,25,25,0,0,0-.12,6.86c.05.57,0,1.2.62,1.56a4,4,0,0,0,1.13.45,22.77,22.77,0,0,0,4.41.37,21.9,21.9,0,0,0,5.05-.62c.08,0,.24,0,.28-.11.55-1,1.06-4.21,1-8.37a2.85,2.85,0,0,0,0-.54C43.09,83.74,36.22,81.56,32.84,84.24Z"/><path class="cls-11" d="M36.45,112.09c-.09-.25-5.82,0-6.11,0a2.52,2.52,0,0,0-1.3,1.18,2.23,2.23,0,0,0,.59,2.8,1.67,1.67,0,0,0,.84.09c3,0,4.9-.13,5.71-.07a.16.16,0,0,0,.12,0c.59-.17.21-3,.22-3.56a1.56,1.56,0,0,0,0-.31Z"/><path class="cls-11" d="M38.12,112c.08-.25,5.82.06,6.11.08a2.48,2.48,0,0,1,1.28,1.19,2.23,2.23,0,0,1-.61,2.79,1.67,1.67,0,0,1-.84.09c-3-.06-4.9-.17-5.71-.12a.24.24,0,0,1-.12,0c-.59-.18-.18-3-.18-3.57a1.07,1.07,0,0,1,0-.31A.8.8,0,0,1,38.12,112Z"/><path class="cls-15" d="M33.38,66.68c-1.05-.33-4,3.54-4.81,4.64-1.55,2.18-1.57,2.33-1.24,3a1,1,0,0,0,.25.29,3.34,3.34,0,0,0,4.7,0c1.17-1.07.61,4.92.41,5.83-.63,2.83-2.18,5.33-1.33,5.88a1.65,1.65,0,0,0,.77.29c3.76,0,11.57-.12,11.59-.12a.24.24,0,0,0,.15,0c.52-.39-1-2.59-1.61-5.58-.17-.76-1-7.07.06-6.16a3.34,3.34,0,0,0,2,1c1.31.08,3.87-.43,3.86-1.4S47,71.92,45.92,70.58c-1.68-2-3.63-3.88-4.27-3.49,0,0,.19.16.08.32,0,0,0,0-1,1a4.78,4.78,0,0,1-2.79,1.18,5.61,5.61,0,0,1-3.58-1C33.12,67.69,34.07,66.9,33.38,66.68Z"/><path class="cls-4" d="M33.4,66.45c-.23.89,1.68,2.55,3.7,2.69,2.28.17,4.57-1.58,4.39-2.53s-3.68-.46-4.05-.47S33.66,65.39,33.4,66.45Z"/><path class="cls-16" d="M33,117.48V80.65a5,5,0,0,1,5-5H99.14a5,5,0,0,1,5,5v36.83"/><rect class="cls-17" x="35.33" y="78.09" width="66.38" height="28.12" rx="3.5"/><path class="cls-18" d="M51.6,82.3h2.14v6.5h2.49v1.89H51.6Z"/><path class="cls-18" d="M62.82,90.69H61.06V90a1.88,1.88,0,0,1-1.75.88A2.24,2.24,0,0,1,57,88.33V84.39h1.88v3.44c0,.69.15,1.3,1,1.3s1.09-.67,1.09-1.31V84.39h1.88Z"/><path class="cls-18" d="M64.18,84.39h1.76v.67a1.88,1.88,0,0,1,1.73-.88A2.25,2.25,0,0,1,70,86.75v3.94H68.13V87.25c0-.69-.15-1.3-1-1.3s-1.07.67-1.07,1.31v3.43H64.18Z"/><path class="cls-18" d="M77.91,90.69h-1.8V90a2.05,2.05,0,0,1-1.9.88,3.36,3.36,0,0,1,0-6.71,2.36,2.36,0,0,1,1.84.75V82.3h1.89Zm-5-3.17a1.54,1.54,0,0,0,1.58,1.61,1.65,1.65,0,0,0,1.16-.47,1.54,1.54,0,0,0,.45-1.17,1.52,1.52,0,0,0-.47-1.11,1.61,1.61,0,0,0-2.72,1.13Z"/><path class="cls-18" d="M80.81,88.19a1.37,1.37,0,0,0,1.45,1.11,1.27,1.27,0,0,0,1.15-.59h1.93a3.68,3.68,0,0,1-1.28,1.61,3.06,3.06,0,0,1-1.8.57,3.36,3.36,0,0,1,0-6.71,3.2,3.2,0,0,1,2.38,1,3.54,3.54,0,0,1,.89,3Zm2.84-1.43a1.36,1.36,0,0,0-1.41-1,1.35,1.35,0,0,0-1.4,1Z"/><polygon points="55.69 103.96 54.31 103.96 54.31 101.74 51.49 98.92 48.67 101.74 48.67 105.34 54.31 105.34 55.69 105.34 60.07 105.34 60.07 99.54 55.69 99.54 55.69 103.96"/><polygon points="57.88 92.96 55.69 99.54 60.07 99.53 57.88 92.96"/><polygon points="78.09 100.08 75.09 103.09 75.09 103.92 73.25 103.92 73.25 100.61 70.68 98.49 64.59 98.49 62.03 100.61 62.03 105.32 73.25 105.32 73.25 105.3 75.09 105.3 81.11 105.3 81.11 103.09 78.09 100.08"/><polygon points="85.56 97.11 82.74 100.71 82.74 105.3 88.38 105.3 88.38 100.71 85.56 97.11"/><rect class="cls-18" x="55.7" y="99.53" width="4.37" height="0.12"/><path class="cls-19" d="M105.64,88.69a70,70,0,0,0-1.2,12.92c0,1.89,4.19-.89,4.47-1.73,1.13-3.36,3.84-7,4.67-9.92C114.3,87.41,106.17,86.24,105.64,88.69Z"/><path class="cls-3" d="M109.13,94.57a1.46,1.46,0,0,1,1.72,1,.33.33,0,0,1-.08.19,3.71,3.71,0,0,0-.53,1.51,12.56,12.56,0,0,0-.27,3.41c0,1.12.49,3,0,3.51a.92.92,0,0,1-.17.14c-.39.21-.77-.13-1.1-.43a1.34,1.34,0,0,1-.46-.75,14.18,14.18,0,0,1-.13-4.12C108.55,95.9,108.52,94.85,109.13,94.57Z"/><path class="cls-3" d="M124.68,94.57a1.47,1.47,0,0,0-1.73,1,.34.34,0,0,0,.09.19,3.68,3.68,0,0,1,.52,1.51,12.51,12.51,0,0,1,.28,3.41c0,1.12-.49,3,0,3.51.08.08.17.13.17.14.39.21.77-.13,1.11-.43a1.37,1.37,0,0,0,.45-.75,13.93,13.93,0,0,0,.14-4.12C125.26,95.9,125.29,94.85,124.68,94.57Z"/><rect class="cls-20" x="112.56" y="98.41" width="9.09" height="8.79" rx="2.95"/><rect class="cls-20" x="118.42" y="105.76" width="2.22" height="8.38"/><rect class="cls-20" x="113.63" y="105.76" width="2.22" height="8.38"/><path class="cls-4" d="M114.25,91c-.14.56,1.61,1.71,2.89,1.8,1.44.1,3.45-1.29,3.34-1.89s-2.89,0-3.13,0S114.42,90.3,114.25,91Z"/><path class="cls-21" d="M112.92,90.57c-2,.49-3.37,2.68-4.29,4-.53.74,1.16,1.44,2.23,1.19.71-.17.55-1,.76-.95,1.65.33.06,8.14,1.12,8.16,5.11.11,5.6.48,8.84.16.78-.07-1.1-8.58.64-7.7.28.14.07.37,1,.78.36.16,2.48-.16,2.16-.94-.61-1.49-2-4.21-4-4.69-.48-.11-1.59,1.36-2.93,1.86a2.47,2.47,0,0,1-2.08,0C114.64,92,114.6,90.17,112.92,90.57Z"/><path class="cls-4" d="M124,90.52h-13.6c-4.18,0-7.49-4.33-7.49-8.42V69.47c0-4.09,3.21-6.64,7.39-6.64l13.58-.08c4.18,0,7.88,2.63,7.88,6.72V82.1C131.77,86.19,128.19,90.52,124,90.52Z"/><ellipse class="cls-10" cx="124.35" cy="78.66" rx="2.36" ry="3.02"/><ellipse class="cls-10" cx="110.32" cy="78.84" rx="2.36" ry="3.02"/><path class="cls-9" d="M113.58,84.52a4.55,4.55,0,0,0,2.38,1.8,5,5,0,0,0,5.16-1.74"/><path class="cls-19" d="M122.64,70.82c-2.9-.47-4.13,4.26-9.78,5.16-1.19.19-11,2.31-11.19.87-.31-2.52.28-9.63,2.42-12.27a8,8,0,0,1,4.8-2.5,42.09,42.09,0,0,1,17.6.14,6.35,6.35,0,0,1,4.06,2.44c.92,1.06,1.6,2.9,2.08,6.67a29.31,29.31,0,0,1,.36,5.88c0,.31-1,0-1.85,0C127.09,77,126.28,71.4,122.64,70.82Z"/><path class="cls-4" d="M102.57,77.72A2.15,2.15,0,0,0,101,76.64c-1.23-.08-2,1.32-2.12,1.45a3.44,3.44,0,0,0,0,3A2.72,2.72,0,0,0,100,82.46a2.76,2.76,0,0,0,2.74-.25c.05,0,.14,0,.14-.1s0-.42,0-.69,0-.85,0-1.32A4.07,4.07,0,0,0,102.57,77.72Z"/><path class="cls-4" d="M132.12,77.72a2.17,2.17,0,0,1,1.63-1.08c1.23-.08,2,1.32,2.12,1.45a3.44,3.44,0,0,1,0,3,2.72,2.72,0,0,1-1.17,1.33,2.76,2.76,0,0,1-2.74-.25c-.06,0-.14,0-.14-.1s0-.42,0-.69,0-.85,0-1.32A4.24,4.24,0,0,1,132.12,77.72Z"/><path class="cls-22" d="M118.37,114a21.1,21.1,0,0,1,2.74,0,1.06,1.06,0,0,1,.58.53,1,1,0,0,1-.27,1.26.87.87,0,0,1-.38,0c-1.34,0-2.2-.08-2.57-.06,0,0,0,0,0,0-.27-.08-.08-1.35-.08-1.6a1,1,0,0,1,0-.14Z"/><path class="cls-22" d="M115.92,114a21.25,21.25,0,0,0-2.75,0,1.13,1.13,0,0,0-.58.53,1,1,0,0,0,.28,1.26.82.82,0,0,0,.37,0c1.35,0,2.21-.08,2.57-.06a.11.11,0,0,0,.06,0c.26-.08.08-1.35.08-1.6a.49.49,0,0,0,0-.14A.32.32,0,0,0,115.92,114Z"/><ellipse class="cls-2" cx="23.91" cy="118.27" rx="13.26" ry="2.82"/><path class="cls-23" d="M37.75,106.41H33.64a1,1,0,0,1-1-1h0c0-1.15,0-2.47.74-3.23a7.34,7.34,0,0,1,2.63-1,5.92,5.92,0,0,1,.85-.13c1.37,0,2.77-.3,4.14-.3.56,0,1,.91,1,1.47h0A4.21,4.21,0,0,1,37.75,106.41Z"/><path class="cls-23" d="M7.31,94.13a2.87,2.87,0,0,1,1-1.7c.13-.1,0,.82.11.65.45-.48,2.39-2.68,4-2.36.84.16-2.11,2-1.58,5.69.12.87.61-1.32.95-.89s-.34,2.67,1.26,4.08c.16.14.3-1.33.5-1.33s.72,3.63,1,3.59a23.14,23.14,0,0,1,8-1.07c2.52.11,3.8,3.89,3.91,6.37a4.52,4.52,0,0,1-.72,3.32c-2.45,2.83-11.08.5-12.27-3.32-.46-1.49.33-2.83-.65-3.78s-2.69-.17-3.8-1.18c-.5-.46-.07-.63-.65-3.6a19.7,19.7,0,0,0-.93-3.87A.92.92,0,0,1,7.31,94.13Z"/><path class="cls-24" d="M40.21,95.52c.58.59.46,1.16.66,3.79,0,.61.09,1.11.12,1.43-.17.16-.34.17-1,.21a24,24,0,0,0-4,.22,5.18,5.18,0,0,0-2.73,1.73,3.6,3.6,0,0,0-.64,2.61,1.07,1.07,0,0,0,1,.9,1.6,1.6,0,0,0,.6,0c1.37-.18,2.45-.19,2.54.25a10.1,10.1,0,0,1-.55,4.2,5.16,5.16,0,0,1-1.44,2c-.09.09,0,.4,0,.93a5.33,5.33,0,0,0,.42,2.53,1.94,1.94,0,0,1,.26.56,1.17,1.17,0,0,1-.25,1.12.8.8,0,0,1-.5.14,26.56,26.56,0,0,0-2.66,0s0,0,0,.21a1.55,1.55,0,0,1-.17.64c-.16.29-1.75.29-3.61.33-1.44,0-1.71-2.12-1.95-2.89A6.88,6.88,0,0,1,26,114.7c0-.12.06-.27,0-.27-1,.06-2.25.06-3.18.08-.06,0,0,.08,0,.25,0,1.16-.13,1.21,0,1.56.15.55.52.5.6,1.06a.92.92,0,0,1-.19.76.63.63,0,0,1-.43.18,16.15,16.15,0,0,1-3-.07c-1.2-1.31-1.62-3.54-1.36-4,0,0,.15-.24.05-.23a1.26,1.26,0,0,1-.81-.15c-.1,0-.06.2-.05.25.08.85-.09.82.05,1.39.27,1.16.94,1.28,1.06,2.35,0,.31.09.92-.18.94-1.55.08-1.76,0-4,0-.13,0-.18-.07-.27-.13-1.23-.67-1.29-1.86-2.1-5.54a1.47,1.47,0,0,1,.07-1.2c.18-.25.5-.34.57-.67a.69.69,0,0,0,0-.39,21.09,21.09,0,0,1-.24-4.81.33.33,0,0,0-.06-.25.41.41,0,0,0-.34-.06,6.63,6.63,0,0,1-1.47-.34,8,8,0,0,1-3.09-2.83c-.21-.31-.06-.82-.31-1.6a6.35,6.35,0,0,0-.33-.82,9.36,9.36,0,0,1-.31-3.59c0-.48.56-.78.64-2.19,0-.15,1.16.14,1.31.58,0,.12.23.45,0,.44s-.39-.05-.46,0,1.27,1.5,1,1.86c-.12.17-.55,0-.62.14s1.37,1.15,1.26,1.36-.47-.06-.54.06c-.17.28,2.06,1.66,1.81,2.35-.11.29-.56.26-.58.45,0,.48,2.76.62,3.08,1.87.05.22-.15.25,0,.6.42,1.18.89,2.53,2,3.17.76.46.81.1,2.2.71,1.21.53,1.21.81,2,1,.57.11.85,0,2,.2a6.69,6.69,0,0,0,.86.15c2.65.24,3,.18,3.08,0s.09-.09.05-.17a5.86,5.86,0,0,1-.5-1.87c0-.26.9.28,1.07.08s-.33-.55-.7-1.51c-.22-.58-.2-.83-.46-1s-.8.2-1-.09-.16-.76-.35-1.09-.49,0-.64-.17.12-1.13.12-1.47-.66.07-.6-.18a7.46,7.46,0,0,1,.61-2.47,3.09,3.09,0,0,1,2.39-.24c.08,0,.3.22.37.16s-.16-.36-.09-.45c.21-.28,2.85,1,3.45,1.3.16.08,0-.37,0-.66a4.44,4.44,0,0,1,2.22-4.28,4.7,4.7,0,0,1,5,1s.07.06.46-.32c.57-.55,1-1,1.49-1h.17A1.85,1.85,0,0,1,40.21,95.52Z"/><path class="cls-23" d="M34.64,89.77c.46-.7,3.58-3.72,4.71-3.22s1.08,3.48.81,7.84c0,.49.36.85.18,1.21-.57,1.14-3.86.58-7.59,1.86-.91.32-2.55.09-3,1.58-.17.57-.05,1-.36,1.19-.7.45-1.76-.43-3.48-.35-1.43.07-2.59,1.08-2.81.56a4.41,4.41,0,0,1-.05-1.68,13.26,13.26,0,0,1,.78-1.82c.1-.28-.17-.49-.25-.62-.31-.49-.67-1.46-.53-6.09.06-2.18.16-2.56.5-2.82.82-.64,2.29,0,2.77.16,2.49,1,3.55,2.58,4.44,3.05.14.07,1.5-.93,1.79-.67.11.1,0,.35.19.34.46,0,.8-.43,1-.28s0,.29.13.36h0C34.21,90.43,34.64,89.77,34.64,89.77Z"/><ellipse class="cls-25" cx="33.09" cy="99.74" rx="0.79" ry="1.02"/><ellipse class="cls-25" cx="39.22" cy="99.59" rx="0.79" ry="1.02"/><ellipse class="cls-26" cx="39.54" cy="102.16" rx="1.02" ry="0.61"/><path class="cls-27" d="M34.64,104.94a1,1,0,0,0,.52.4A1.1,1.1,0,0,0,36.3,105"/><path class="cls-28" d="M24.41,87.86c-1.52.58,0,8,.23,8a.84.84,0,0,0,.24-.37s.36,0,.48,0,.1-.5.1-.5.73,0,.94-.25.08-.79.08-.79.8.16,1-.08.08-1,.08-1,1.06.33,1.14.13C28.89,92.63,25.78,87.34,24.41,87.86Z"/><path class="cls-28" d="M39,87.65c-.17-.15-2.55,3.09-2.55,3.09a7.16,7.16,0,0,1,1.46.89,10.08,10.08,0,0,1,1.35,1.48C39.13,92.7,39.93,88.56,39,87.65Z"/><path class="cls-29" d="M34.79,112.86l-1.12.33c-1.79.54-2.13.46-2.15.7a10.91,10.91,0,0,0,.56,4.25"/><path class="cls-29" d="M31.56,112.26a3.79,3.79,0,0,0,0,1.58"/></g></svg>