<svg xmlns="http://www.w3.org/2000/svg" viewBox="0 0 361.51 264.05"><defs><style>.cls-1{fill:#1d1d1b;}.cls-2{fill:#fff;}.cls-3{fill:#588b6e;}</style></defs><g id="Layer_4" data-name="Layer 4"><path class="cls-1" d="M341.13,264.05H15.42A4.51,4.51,0,0,1,11,258.5L37.51,147.72a4.49,4.49,0,0,1,4.38-3.45H181.15a4.5,4.5,0,0,1,0,9H45.44L21.12,255.05H335.43L311.12,153.27h-8.06a4.5,4.5,0,0,1,0-9h11.61a4.5,4.5,0,0,1,4.38,3.45L345.51,258.5a4.49,4.49,0,0,1-4.38,5.55Z"/><path class="cls-2" d="M212,209.65q13-3.79,26.43-9"/><path class="cls-1" d="M212,214.15a4.5,4.5,0,0,1-1.26-8.82c8.67-2.54,17.44-5.53,26.05-8.89a4.5,4.5,0,1,1,3.27,8.38c-8.85,3.46-17.87,6.54-26.79,9.15A4.64,4.64,0,0,1,212,214.15Z"/><path class="cls-2" d="M164,219.51c8.79-1,17.84-2.54,27.13-4.56"/><path class="cls-1" d="M164,224a4.5,4.5,0,0,1-.53-9c8.87-1.06,17.86-2.57,26.71-4.49a4.5,4.5,0,0,1,1.91,8.8c-9.13,2-18.4,3.54-27.56,4.63Z"/><path class="cls-2" d="M121.34,221.31c8.29.29,16.93.22,25.89-.31"/><path class="cls-1" d="M130.91,226q-4.89,0-9.72-.17a4.5,4.5,0,0,1,.31-9c8.43.3,17,.19,25.47-.3a4.5,4.5,0,1,1,.52,9C142,225.82,136.43,226,130.91,226Z"/><path class="cls-2" d="M79.16,216.55c7.77,1.5,16.06,2.74,24.83,3.61"/><path class="cls-1" d="M104,224.66l-.44,0c-8.45-.83-16.94-2.06-25.24-3.66a4.5,4.5,0,1,1,1.7-8.84c8,1.55,16.25,2.74,24.42,3.55a4.5,4.5,0,0,1-.44,9Z"/><path class="cls-2" d="M42.35,206.68c6.08,2.11,12.83,4.2,20.18,6.11"/><path class="cls-1" d="M62.54,217.29a4.45,4.45,0,0,1-1.14-.14c-6.94-1.81-13.85-3.9-20.53-6.22a4.5,4.5,0,1,1,3-8.5c6.45,2.24,13.12,4.26,19.83,6a4.5,4.5,0,0,1-1.12,8.85Z"/><path class="cls-2" d="M4.5,189.42A161.88,161.88,0,0,0,26.62,200.6"/><path class="cls-1" d="M26.62,205.1a4.63,4.63,0,0,1-1.77-.36c-14.46-6.19-22.46-11.33-22.79-11.55a4.49,4.49,0,1,1,4.88-7.55h0a162.57,162.57,0,0,0,21.45,10.82,4.5,4.5,0,0,1-1.77,8.64Z"/><path class="cls-3" d="M345,18.25C334.21,6.54,320,.14,304.82.14S275.39,6.59,264.66,18.3l-5.61,6.11-5.7-6.21C242.62,6.49,228.31,0,213.14,0s-29.38,6.45-40.08,18.11a64.16,64.16,0,0,0-16.6,43.8,64.37,64.37,0,0,0,16.69,43.75l81.64,89a5.68,5.68,0,0,0,4.13,1.9,5.63,5.63,0,0,0,4.13-1.85l81.81-88.88a64.46,64.46,0,0,0,16.65-43.8A64.19,64.19,0,0,0,345,18.25ZM336.6,96.8l-77.68,84.37L181.41,96.65a51.11,51.11,0,0,1-13.22-34.74,50.88,50.88,0,0,1,13.17-34.7,42.44,42.44,0,0,1,63.69.05L254.88,38a5.52,5.52,0,0,0,8.3,0l9.74-10.62a42.43,42.43,0,0,1,63.68-.05,51.09,51.09,0,0,1,13.17,34.75A50.86,50.86,0,0,1,336.6,96.8Z"/><path class="cls-1" d="M307.76,81.7a23.41,23.41,0,1,1,7.41-45.62,4.5,4.5,0,0,1-2.85,8.54,14.41,14.41,0,1,0,9.85,13.67,14.54,14.54,0,0,0-.73-4.55A4.5,4.5,0,0,1,330,50.89,23.44,23.44,0,0,1,307.76,81.7Z"/></g></svg>