<svg id="Layer_1" data-name="Layer 1" xmlns="http://www.w3.org/2000/svg" viewBox="0 0 204.93 41.62"><defs><style>.cls-1{fill:#fff;}</style></defs><title>lunde-by</title><path class="cls-1" d="M0,33.3V0H8.5V25.83h9.86V33.3Z"/><path class="cls-1" d="M37.44,33.3V30.64h-.09c-1.08,2.3-3.06,3.47-6.44,3.47-5.26,0-9.62-3.15-9.62-10.26V8.32h7.46v14c0,3.28,1.17,4.81,4,4.81S37,25.24,37,22.18V8.32H44.5v25Z"/><path class="cls-1" d="M65.56,33.3V19.44c0-3.38-1.17-5-3.91-5-3,0-4.28,1.66-4.28,5V33.3H49.9v-25h7V11H57c1.57-2.56,3.78-3.51,6.79-3.51,4.5,0,9.27,2.52,9.27,9.9V33.3Z"/><path class="cls-1" d="M97.24,33.3V30.6h-.09c-1.39,2.29-3.91,3.51-7.47,3.51-7.56,0-12.51-5.81-12.51-13.37S82.26,7.47,89.55,7.47a9.67,9.67,0,0,1,7.33,3V0h7.47V33.3Zm.05-12.6a6.33,6.33,0,0,0-12.65,0,6.12,6.12,0,0,0,6.26,6.43A6.26,6.26,0,0,0,97.29,20.7Z"/><path class="cls-1" d="M115.78,23.08a5.59,5.59,0,0,0,5.85,4.73,5.27,5.27,0,0,0,4.55-2.34h7.65c-2.39,5.44-6.93,8.64-12.2,8.64a13.32,13.32,0,0,1-.13-26.64c7.47,0,13.18,5.89,13.18,13.63a9.18,9.18,0,0,1-.18,2Zm11.43-5a5.9,5.9,0,0,0-11.34,0Z"/><path class="cls-1" d="M153,33.3V0h10.67A25.44,25.44,0,0,1,169,.41c3.78.85,6.93,3.78,6.93,8.28a7.48,7.48,0,0,1-3.87,6.74,7.58,7.58,0,0,1,5.49,7.74,9.41,9.41,0,0,1-3.87,7.88c-2.61,1.84-4.32,2.25-9.59,2.25Zm11.52-20.66c2.12,0,3.24-.9,3.24-2.65s-1.08-2.52-3.19-2.52h-3.42v5.17Zm1,13.19c2.39,0,3.87-1,3.87-3.2,0-1.93-1.3-2.88-3.82-2.88h-4.41v6.08Z"/><path class="cls-1" d="M184.5,41.62l4-9.58L179.19,8.32h8l5,14.49h.09L197,8.32h7.92l-12.51,33.3Z"/></svg>