<svg xmlns="http://www.w3.org/2000/svg" viewBox="0 0 1818.82 931"><defs><style>.cls-1{fill:#eee;}.cls-2{fill:#ccc;opacity:0.6;}.cls-3{fill:#c1edaf;}.cls-4,.cls-5,.cls-6,.cls-7{fill:none;}.cls-4,.cls-5{stroke:#a9daff;}.cls-4,.cls-6{stroke-linecap:round;}.cls-4,.cls-6,.cls-7{stroke-linejoin:round;}.cls-4,.cls-5,.cls-7{stroke-width:2px;}.cls-5{stroke-miterlimit:10;}.cls-6{stroke:#fdfdfd;stroke-width:4px;}.cls-7{stroke:#b3b3b3;stroke-dasharray:1;opacity:0.71;}</style></defs><title>mapVector</title><g id="Layer_5" data-name="Layer 5"><rect class="cls-1" x="-2.18" y="-2" width="1819" height="931"/></g><g id="BygningTegning"><polygon class="cls-2" points="101.82 44 101.82 41 108.82 42 108.82 46 105.82 45 104.82 50 106.82 50 106.82 53 101.82 52 102.82 44 101.82 44"/><polygon class="cls-2" points="109.82 47 108.82 50 110.82 50 111.82 48 109.82 47"/><polygon class="cls-2" points="128.82 45 127.82 46 129.82 47 130.82 46 128.82 45"/><polygon class="cls-2" points="131.82 47 130.82 51 131.82 52 130.82 54 132.82 54 133.82 52 132.82 51 133.82 48 131.82 47"/><polygon class="cls-2" points="137.82 47 135.82 50 137.82 51 138.82 48 137.82 47"/><polygon class="cls-2" points="218.82 105 218.82 115 218.82 116 220.82 116 220.82 119 225.82 119 225.82 116 223.82 116 223.82 109 224.82 109 224.82 105 218.82 105"/><polygon class="cls-2" points="228.82 111 228.82 115 231.82 116 231.82 111 228.82 111"/><polygon class="cls-2" points="310.82 68 307.82 67 305.82 68 304.82 78 309.82 78 310.82 68"/><polygon class="cls-2" points="319.82 68 320.82 72 314.82 72 314.82 78 320.82 78 320.82 82 313.82 81 313.82 78 310.82 78 311.82 67 319.82 68"/><polygon class="cls-2" points="322.82 70 326.82 71 325.82 76 322.82 75 322.82 70"/><polyline class="cls-2" points="314.82 62 326.82 62 327.82 54 315.82 53 314.82 62"/><polygon class="cls-2" points="309.82 57 307.82 56 305.82 56 303.82 57 303.82 60 305.82 62 308.82 62 309.82 59 309.82 57"/><polygon class="cls-2" points="432.82 0 431.82 4 435.82 6 438.82 -1 432.82 -1 432.82 0"/><polygon class="cls-2" points="448.82 -1 445.82 8 451.82 10 454.82 -1 448.82 -1"/><polygon class="cls-2" points="462.82 6 464.82 7 463.82 11 462.82 11 461.82 14 455.82 12 456.82 8 461.82 10 462.82 6"/><polygon class="cls-2" points="497.82 18 496.82 31 497.82 31 497.82 34 504.82 35 504.82 31 500.82 31 500.82 25 504.82 26 505.82 19 497.82 18"/><polygon class="cls-2" points="491.82 25 490.82 33 491.82 34 493.82 34 493.82 31 495.82 31 495.82 25 491.82 25"/><polygon class="cls-2" points="954.82 11 957.82 11 957.82 13 959.82 13 959.82 17 956.82 17 956.82 20 960.82 21 960.82 24 955.82 24 954.82 20 953.82 20 954.82 11"/><polygon class="cls-2" points="971.82 33 974.82 33 976.82 43 972.82 43 972.82 39 969.82 39 968.5 34.3 971.82 33"/><polygon class="cls-2" points="977.82 37 980.82 36 981.82 38 977.82 39 977.82 37"/><polygon class="cls-2" points="1628.82 5 1633.82 7 1627.82 24 1621.82 21 1628.82 5"/><polygon class="cls-2" points="1640.82 16 1642.82 17 1647.82 15 1648.82 12 1643.82 11 1644.82 7 1646.82 7 1647.82 3 1646.82 2 1648.82 -3 1640.82 -2 1637.82 9 1640.82 16"/><polygon class="cls-2" points="1635.82 -2 1634.82 3 1631.82 2 1631.82 -3 1635.82 -2"/><polygon class="cls-2" points="1306.82 93 1313.82 93 1313.82 94 1316.82 94 1316.82 100 1314.82 100 1314.82 99 1309.82 99 1309.82 105 1312.82 105 1312.82 109 1307.82 109 1307.82 105 1306.82 105 1306.82 93"/><polygon class="cls-2" points="1230.82 84 1231.82 80 1229.82 79 1231.82 73 1228.82 72 1230.82 67 1224.82 65 1221.82 73 1226.82 76 1224.82 78 1225.82 79 1224.82 82 1230.82 84"/><polygon class="cls-2" points="1209.82 95 1208.82 104 1212.82 104 1214.82 95 1209.82 95"/><polygon class="cls-2" points="1206.82 92 1203.82 91 1201.82 93 1201.82 96 1202.82 98 1205.82 98 1207.82 96 1206.82 92"/><polygon class="cls-2" points="1202.82 128 1197.82 124 1201.82 119 1203.82 121 1205.82 119 1203.82 117 1210.82 108 1205.82 105 1204.82 108 1196.82 103 1194.82 107 1198.82 108 1196.82 111 1192.82 107 1189.82 111 1183.82 106 1173.82 120 1180.82 125 1188.82 113 1196.82 118 1191.82 125 1200.82 132 1202.82 128"/><polygon class="cls-2" points="974.82 65 978.82 64 979.82 68 974.82 70 974.82 65"/><polygon class="cls-2" points="983.82 63 981.82 63 980.82 65 982.82 65 983.82 63"/><polygon class="cls-2" points="703.82 59 701.82 68 707.82 70 710.82 61 703.82 59"/><polygon class="cls-2" points="702.82 55 700.82 62 695.82 62 694.82 67 698.82 67 697.82 71 690.82 69 691.82 60 685.82 59 686.82 53 694.82 54 697.82 50 702.82 55"/><polygon class="cls-2" points="628.82 57 630.82 57 632.82 59 632.82 62 630.82 63 628.82 63 626.82 61 626.82 59 628.82 57"/><rect class="cls-2" x="616.82" y="63" width="2" height="2"/><polygon class="cls-2" points="637.82 76 646.82 78 644.82 92 634.82 91 637.82 76"/><polygon class="cls-2" points="615.82 85 614.82 85 613.82 87 615.82 87 615.82 85"/><polygon class="cls-2" points="635.82 75 627.82 74 628.82 70 623.82 70 622.82 73 614.82 71 614.82 76 622.82 77 621.82 84 623.82 85 622.82 88 633.82 89 633.82 86 626.82 85 627.82 78 630.82 81 635.82 79 635.82 75"/><polygon class="cls-2" points="223.82 166 221.82 165 220.82 168 223.82 169 223.82 166"/><polygon class="cls-2" points="528.82 107 534.82 108 533.82 110 527.82 109 528.82 107"/><polygon class="cls-2" points="533.82 111 536.82 111 535.82 119 537.82 120 537.82 124 533.82 123 533.82 120 532.82 120 533.82 111"/><polygon class="cls-2" points="1199.82 142 1202.82 144 1198.82 150 1197.82 149 1193.82 155 1199.82 159 1197.82 161 1186.82 152 1190.82 148 1193.82 150 1199.82 142"/><polygon class="cls-2" points="1555.82 178 1564.82 178 1563.82 181 1555.82 181 1555.82 178"/><polygon class="cls-2" points="1546.82 183 1560.82 183 1560.82 189 1555.82 189 1555.82 187 1549.82 186 1549.82 189 1546.82 189 1546.82 183"/><polygon class="cls-2" points="1556.82 192 1555.82 194 1559.82 195 1560.82 193 1556.82 192"/><polygon class="cls-2" points="1601.82 171 1598.82 176 1601.82 177 1599.82 180 1606.82 183 1611.82 174 1601.82 171"/><polygon class="cls-2" points="1628.82 186 1617.82 183 1619.82 175 1623.82 177 1622.82 180 1629.82 183 1628.82 186"/><polygon class="cls-2" points="1637.82 182 1633.82 192 1642.82 194 1643.82 192 1645.82 196 1649.82 198 1652.82 197 1655.82 194 1655.82 191 1653.82 186 1646.82 184 1644.82 187 1643.82 184 1637.82 182"/><polyline class="cls-2" points="1622.82 237 1629.82 237 1633.82 241 1633.82 245 1628.82 249 1623.82 249 1619.82 245 1619.82 240 1622.82 237"/><polygon class="cls-2" points="1622.82 194 1633.82 198 1610.82 250 1600.82 246 1622.82 194"/><rect class="cls-2" x="1716.26" y="190.44" width="4.12" height="4.12" transform="translate(1114.81 1812.83) rotate(-75.96)"/><polygon class="cls-2" points="1713.82 188 1709.82 186 1705.82 194 1709.82 196 1708.82 198 1711.82 199 1713.82 194 1711.82 192 1713.82 188"/><rect class="cls-2" x="1406.82" y="257" width="3" height="2"/><polygon class="cls-2" points="1401.82 257 1405.82 257 1405.82 254 1402.82 254 1402.82 250 1398.82 250 1398.82 257 1399.82 257 1399.82 261 1400.82 264 1401.82 263 1401.82 257"/><polyline class="cls-2" points="1401.82 264 1405.82 264 1405.82 267 1401.82 268 1401.82 264"/><polygon class="cls-2" points="1375.82 265 1373.82 264 1373.82 267 1375.82 267 1375.82 265"/><polygon class="cls-2" points="983.82 183 987.82 184 987.82 181 991.82 182 989.82 185 987.82 185 987.82 187 982.82 186 983.82 183"/><polygon class="cls-2" points="952.82 196 972.82 198 971.82 207 951.82 204 952.82 196"/><polygon class="cls-2" points="979.82 210 983.82 211 983.82 210 988.82 211 988.82 213 983.82 212 983.82 214 978.82 213 979.82 210"/><polygon class="cls-2" points="981.82 217 981.82 221 986.82 221 988.82 220 988.82 217 981.82 217"/><polygon class="cls-2" points="961.82 216 959.82 216 959.82 219 960.82 219 961.82 216"/><polygon class="cls-2" points="963.82 216 967.82 217 966.82 220 970.82 220 970.82 224 968.82 224 968.82 225 966.82 225 966.82 223 962.82 222 963.82 216"/><polygon class="cls-2" points="977.82 232 983.82 232 983.82 235 981.82 235 981.82 237 976.82 236 977.82 232"/><polygon class="cls-2" points="989.82 231 988.82 233 993.82 235 993.82 234 996.82 235 997.82 232 992.82 230 991.82 232 989.82 231"/><polygon class="cls-2" points="999.82 234 1011.82 236 1010.82 243 998.82 241 999.82 234"/><polygon class="cls-2" points="976.82 240 981.82 241 979.82 245 975.82 245 976.82 240"/><polygon class="cls-2" points="964.82 236 964.82 238 965.82 238 965.82 240 968.82 241 967.82 244 972.82 245 973.82 241 968.82 240 968.82 237 964.82 236"/><polygon class="cls-2" points="949.82 239 947.82 242 952.82 244 954.82 243 954.82 241 958.82 242 959.82 239 955.82 237 954.82 240 949.82 239"/><polygon class="cls-2" points="958.82 243 963.82 244 963.82 245 966.82 246 965.82 252 959.82 251 960.82 247 958.82 246 958.82 243"/><polygon class="cls-2" points="974.82 247 982.82 250 981.82 252 977.82 250 975.82 253 973.82 252 974.82 247"/><polyline class="cls-2" points="963.82 254 961.82 254 959.82 259 964.82 262 965.82 258 962.82 257 963.82 254"/><polygon class="cls-2" points="978.82 254 973.82 253 972.82 257 974.82 257 975.82 255 977.82 256 978.82 254"/><polygon class="cls-2" points="972.82 257 976.82 259 974.82 262 973.82 262 972.82 263 973.82 264 972.82 266 971.82 265 971.82 267 968.82 266 972.82 257"/><polygon class="cls-2" points="967.82 270 969.82 271 970.82 270 972.82 271 974.82 268 968.82 266 967.82 270"/><rect class="cls-2" x="951.24" y="260.42" width="3.16" height="3.16" transform="translate(402.96 1083.07) rotate(-71.57)"/><polygon class="cls-2" points="949.82 261 950.82 260 950.82 258 948.82 258 947.82 259 947.82 260 949.82 261"/><polygon class="cls-2" points="986.82 265 985.82 273 992.82 274 992.82 275 998.82 276 998.82 274 1009.82 276 1010.82 269 986.82 265"/><polygon class="cls-2" points="984.82 274 980.82 273 979.82 279 982.82 279 982.82 282 987.82 282 988.82 279 983.82 278 984.82 274"/><polygon class="cls-2" points="965.82 275 968.82 276 967.82 279 971.82 280 969.82 283 962.82 280 965.82 275"/><polygon class="cls-2" points="945.82 262 946.82 260 944.82 260 943.82 262 940.82 261 940.82 262 938.82 262 938.82 260 935.82 260 936.82 256 931.82 254 930.82 257 931.82 257 926.82 268 934.82 271 936.82 266 945.82 270 948.82 263 945.82 262"/><polygon class="cls-2" points="930.82 254 928.82 254 926.82 257 929.82 257 930.82 254"/><polygon class="cls-2" points="952.82 267 950.82 272 951.82 273 950.82 275 947.82 279 948.82 280 947.82 283 951.82 285 954.82 278 953.82 278 957.82 269 952.82 267"/><polygon class="cls-2" points="947.82 307 953.82 292 949.82 291 942.82 306 947.82 307"/><polygon class="cls-2" points="960.82 287 968.82 290 967.82 294 963.82 300 960.82 299 956.82 298 960.82 287"/><polygon class="cls-2" points="952.82 308 957.82 310 959.82 305 957.82 304 958.82 303 954.82 301 952.82 308"/><polyline class="cls-2" points="964.82 300 970.82 302 966.82 313 960.82 311 964.82 300"/><polygon class="cls-2" points="960.82 313 954.82 310 952.82 314 958.82 316 960.82 313"/><polyline class="cls-2" points="961.82 312 965.82 313 963.82 318 959.82 316 961.82 312"/><polygon class="cls-2" points="934.82 312 935.82 309 945.82 313 943.82 316 934.82 312"/><polygon class="cls-2" points="971.82 308 976.82 310 980.82 300 982.82 301 978.82 312 986.82 316 993.82 296 996.82 297 993.82 304 1000.82 307 1004.82 298 986.82 291 984.82 298 981.82 297 983.82 292 978.82 289 971.82 308"/><polygon class="cls-2" points="971.82 323 982.82 324 983.82 316 972.82 315 972.82 318 969.82 318 969.82 322 967.82 322 967.82 325 964.82 324 964.82 328 970.82 329 971.82 323"/><polygon class="cls-2" points="949.82 317 953.82 319 952.82 321 956.82 323 955.82 325 947.82 321 949.82 317"/><polyline class="cls-2" points="947.82 322 951.82 324 949.82 326 946.82 325 947.82 322"/><polygon class="cls-2" points="953.82 325 955.82 327 952.82 329 955.82 333 952.82 336 948.82 329 953.82 325"/><polygon class="cls-2" points="936.82 324 929.82 322 928.82 325 935.82 327 936.82 324"/><polygon class="cls-2" points="957.82 332 955.82 334 956.82 335 953.82 338 956.82 341 959.82 337 957.82 334 958.82 333 957.82 332"/><polygon class="cls-2" points="968.82 332 970.82 333 970.82 331 968.82 331 968.82 332"/><polygon class="cls-2" points="957.82 341 960.82 338 963.82 342 960.82 344 957.82 341"/><polygon class="cls-2" points="967.82 338 970.82 341 965.82 345 963.17 342.43 967.82 338"/><polygon class="cls-2" points="974.82 341 972.82 343 975.82 345 977.82 343 974.82 341"/><polygon class="cls-2" points="976.82 345 979.82 340 983.82 343 981.82 345 980.82 344 977.82 347 976.82 346 976.82 345"/><polygon class="cls-2" points="975.82 346 973.82 344 972.82 345 969.82 343 966.82 346 968.82 347 967.82 348 969.82 350 972.82 347 973.82 348 975.82 346"/><polygon class="cls-2" points="977.82 351 974.82 355 976.82 356 975.82 357 978.82 360 981.82 357 980.82 356 982.82 354 977.82 351"/><polygon class="cls-2" points="980.82 361 983.82 364 986.82 359 984.82 358 983.82 359 982.82 359 980.82 361"/><polygon class="cls-2" points="985.82 361 982.82 366 986.82 368 988.82 365 986.82 364 988.82 362 985.82 361"/><polygon class="cls-2" points="989.82 368 992.82 370 994.82 366 995.82 367 997.82 364 995.82 363 994.82 365 992.82 363 989.82 368"/><polygon class="cls-2" points="1001.82 368 1000.82 368 1001.82 366 1002.82 367 1001.82 368"/><polygon class="cls-2" points="1004.82 368 1002.82 373 1009.82 375 1011.82 370 1004.82 368"/><polygon class="cls-2" points="969.82 361 967.82 365 969.82 367 968.82 368 971.82 369 973.82 367 970.82 366 971.82 365 973.82 365 976.82 363 969.82 361"/><polygon class="cls-2" points="975.82 367 973.82 369 974.82 370 973.82 373 974.82 373 972.82 376 975.82 378 977.82 375 975.82 374 980.82 368 975.82 367"/><polygon class="cls-2" points="980.82 371 978.82 373 981.82 375 983.82 373 980.82 371"/><rect class="cls-2" x="993.58" y="378.38" width="4.47" height="2.24" transform="translate(211.04 1100.47) rotate(-63.43)"/><polyline class="cls-2" points="993.82 388 995.82 389 996.82 388 994.82 386 996.82 384 991.82 383 990.82 387 993.82 388"/><polygon class="cls-2" points="987.82 382 984.82 380 982.82 384 985.82 385 987.82 382"/><polygon class="cls-2" points="983.82 375 986.82 377 978.82 389 974.82 387 983.82 375"/><polygon class="cls-2" points="975.82 384 974.82 383 973.82 385 974.82 385 975.82 384"/><polygon class="cls-2" points="968.82 376 973.82 378 971.82 382 973.82 383 971.82 385 969.82 385 969.82 384 966.82 382 968.82 379 967.82 378 968.82 376"/><polygon class="cls-2" points="966.82 386 969.82 387 966.82 388 964.82 393 962.82 393 961.82 394 960.82 393 963.82 386 966.82 386"/><polygon class="cls-2" points="957.82 395 960.82 397 961.82 396 964.82 398 963.82 399 962.82 399 960.82 402 957.82 401 958.82 399 955.82 398 957.82 395"/><polygon class="cls-2" points="957.82 371 965.82 375 963.82 378 955.82 374 957.82 371"/><polygon class="cls-2" points="959.82 360 961.82 362 962.82 360 961.82 359 959.82 360"/><polygon class="cls-2" points="958.82 360 961.82 357 960.82 356 961.82 355 959.82 353 955.82 356 958.82 360"/><polyline class="cls-2" points="955.82 352 958.82 349 956.82 347 952.82 349 955.82 352"/><polygon class="cls-2" points="954.82 353 952.82 354 950.82 352 951.82 351 954.82 353"/><polygon class="cls-2" points="954.82 356 949.82 354 948.82 357 950.82 358 948.82 362 951.82 363 954.82 356"/><polygon class="cls-2" points="945.82 363 950.82 365 952.82 365 955.82 366 954.82 367 952.82 366 951.82 368 949.82 367 948.82 369 944.82 366 945.82 363"/><polygon class="cls-2" points="959.82 365 960.82 365 960.82 367 959.82 366 959.82 365"/><polygon class="cls-2" points="943.82 368 945.82 370 946.82 369 949.82 371 948.82 372 947.82 372 945.82 374 942.82 373 943.82 372 941.82 371 943.82 368"/><polygon class="cls-2" points="952.82 406 956.82 408 957.82 407 960.82 409 959.82 412 956.82 411 955.82 413 951.82 412 952.82 410 950.82 409 952.82 406"/><polygon class="cls-2" points="953.82 415 957.82 416 956.82 418 952.82 417 951.82 420 949.82 419 949.82 417 946.27 415.73 948.82 413 953.82 415"/><polygon class="cls-2" points="943.82 425 945.82 426 946.82 425 948.82 426 949.82 424 951.82 425 952.82 424 948.82 422 947.82 423 944.82 421 943.82 425"/><polygon class="cls-2" points="961.82 424 962.82 422 965.82 423 964.82 425 966.82 426 964.82 431 961.82 429 962.82 427 960.82 426 961.82 424"/><polygon class="cls-2" points="960.82 439 957.82 437 958.82 435 956.82 434 957.82 432 956.82 431 957.82 429 962.82 432 961.82 433 963.82 434 960.82 439"/><polygon class="cls-2" points="940.82 430 942.82 431 943.82 430 947.82 432 948.82 435 947.82 437 945.82 436 945.82 434 944.82 437 940.82 435 941.82 434 938.82 433 940.82 430"/><polygon class="cls-2" points="953.82 445 955.82 446 957.82 444 954.82 443 953.82 445"/><polygon class="cls-2" points="952.82 444 954.82 441 956.82 442 958.82 440 952.82 437 950.82 440 951.82 440 949.82 443 952.82 444"/><polygon class="cls-2" points="932.82 447 937.82 449 937.82 451 938.82 452 940.82 448 939.82 447 939.82 446 933.82 444 932.82 447"/><polygon class="cls-2" points="942.82 453 945.82 454 946.82 452 950.82 455 952.82 454 953.82 452 944.82 448 942.82 453"/><polygon class="cls-2" points="946.82 460 947.82 457 950.82 458 949.82 459 952.82 461 950.82 466 946.82 464 946.82 462 947.82 461 946.82 460"/><polygon class="cls-2" points="942.82 466 943.82 464 947.82 466 946.82 467 949.82 468 946.82 474 943.82 472 944.82 469 942.82 466"/><polygon class="cls-2" points="926.82 459 928.82 460 929.82 458 932.82 460 934.82 458 936.82 459 937.82 457 928.82 454 926.82 459"/><polygon class="cls-2" points="924.82 458 925.82 459 924.82 461 922.82 461 924.82 458"/><polygon class="cls-2" points="924.82 456 922.82 460 920.82 459 920.82 458 918.82 457 920.82 454 924.82 456"/><polygon class="cls-2" points="913.82 449 912.82 451 911.82 451 909.82 451 908.82 453 909.82 453 909.82 454 910.82 455 912.82 453 914.82 454 913.82 455 916.82 456 919.82 451 913.82 449"/><polygon class="cls-2" points="920.82 438 919.82 440 921.82 441 920.82 443 922.82 444 921.82 445 923.82 446 924.82 445 925.82 445 926.82 442 925.82 441 926.82 440 923.82 438 922.82 439 920.82 438"/><polygon class="cls-2" points="926.82 430 925.82 431 926.82 432 925.82 433 927.82 434 925.82 437 926.82 439 928.82 439 931.82 433 930.82 433 931.82 432 926.82 430"/><polygon class="cls-2" points="928.82 427 930.82 424 931.82 425 932.82 422 931.82 422 932.82 420 935.82 421 934.82 423 936.82 424 933.82 429 928.82 427"/><polygon class="cls-2" points="936.82 410 935.82 412 936.82 412 935.82 415 936.82 416 935.82 419 938.82 420 941.82 414 938.82 413 939.82 412 936.82 410"/><polygon class="cls-2" points="939.82 404 940.82 402 943.82 404 942.82 405 944.82 407 941.82 412 938.82 410 941.82 406 939.82 404"/><polygon class="cls-2" points="943.82 401 946.82 403 949.82 397 947.82 396 947.82 395 944.82 394 943.82 395 945.82 397 943.82 401"/><polygon class="cls-2" points="951.82 392 948.82 390 949.82 388 940.82 383 939.82 384 937.82 383 939.82 379 955.82 386 951.82 392"/><polygon class="cls-2" points="935.82 387 933.82 391 935.82 393 937.82 392 939.82 389 935.82 387"/><polygon class="cls-2" points="935.82 394 934.82 395 930.82 394 929.82 397 931.82 399 933.82 400 934.82 399 935.82 400 936.82 398 938.82 399 939.82 396 935.82 394"/><polygon class="cls-2" points="926.82 403 932.82 407 934.82 407 936.82 403 936.82 402 935.82 402 934.82 403 927.82 400 926.82 403"/><polygon class="cls-2" points="924.82 407 927.82 410 925.82 413 923.82 411 922.82 410 924.82 407"/><polygon class="cls-2" points="921.82 414 926.82 416 925.82 419 923.82 420 921.82 419 922.82 418 921.82 418 920.82 419 918.82 418 921.82 414"/><polygon class="cls-2" points="918.82 426 915.82 424 917.82 420 922.82 423 922.82 422 925.82 423 924.82 425 922.82 424 921.82 426 919.82 425 918.82 426"/><polygon class="cls-2" points="910.82 435 913.82 437 916.82 433 918.82 434 919.82 431 913.82 428 910.82 435"/><polygon class="cls-2" points="910.82 448 908.82 452 902.82 450 903.82 448 902.82 447 901.82 448 900.82 447 900.82 446 895.82 443 893.82 446 889.82 444 892.82 438 910.82 448"/><polygon class="cls-2" points="889.82 437 887.82 440 885.82 439 884.82 440 880.82 438 881.82 436 879.82 435 881.82 433 889.82 437"/><polygon class="cls-2" points="901.82 296 900.82 298 903.82 299 902.82 301 904.82 302 907.82 297 901.82 296"/><polygon class="cls-2" points="884.82 314 883.82 316 885.82 317 886.82 316 884.82 314"/><polygon class="cls-2" points="896.82 297 892.82 305 883.82 300 886.82 296 887.82 297 890.82 293 896.82 297"/><polygon class="cls-2" points="883.82 295 886.82 290 879.82 287 876.82 292 883.82 295"/><polygon class="cls-2" points="871.82 294 869.82 297 879.82 302 881.82 299 874.82 296 875.82 295 872.82 294 872.82 295 871.82 294"/><polygon class="cls-2" points="868.82 298 871.82 293 873.82 294 875.82 289 866.82 285 861.82 294 863.82 295 863.82 296 865.82 297 865.82 296 868.82 298"/><polygon class="cls-2" points="844.82 276 839.82 285 844.82 288 839.82 296 847.82 301 858.82 284 844.82 276"/><polygon class="cls-2" points="855.82 264 854.82 267 862.82 269 863.82 267 855.82 264"/><polygon class="cls-2" points="856.82 263 852.82 262 855.82 254 859.82 255 856.82 263"/><polygon class="cls-2" points="904.82 334 906.82 335 905.82 337 902.82 336 903.82 334 904.82 334"/><polygon class="cls-2" points="910.82 330 909.82 332 923.82 338 925.82 335 910.82 330"/><polygon class="cls-2" points="911.82 338 909.82 340 914.82 343 912.82 346 914.82 347 913.82 349 917.82 351 923.82 340 917.82 338 916.82 340 911.82 338"/><polygon class="cls-2" points="935.82 334 934.82 337 937.82 338 938.82 337 941.82 338 942.82 336 944.82 336 946.82 333 940.82 332 939.82 335 935.82 334"/><rect class="cls-2" x="944.58" y="340.76" width="4.47" height="4.47" transform="translate(216.6 1036.47) rotate(-63.43)"/><polygon class="cls-2" points="940.82 347 939.82 349 941.82 350 939.82 353 943.82 355 945.82 351 943.82 350 944.82 349 940.82 347"/><polygon class="cls-2" points="935.82 353 934.82 355 938.82 357 936.82 359 937.82 361 939.82 362 941.82 359 942.82 359 943.82 358 940.82 356 940.82 357 938.82 356 938.82 355 935.82 353"/><polygon class="cls-2" points="932.82 360 931.82 361 933.82 362 932.82 365 937.82 367 939.82 364 934.82 362 935.82 361 932.82 360"/><polygon class="cls-2" points="930.82 339 932.82 340 931.82 341 932.82 343 931.82 344 929.82 343 927.82 343 930.82 339"/><polygon class="cls-2" points="926.82 344 929.82 345 927.82 347 926.82 346 925.82 348 923.82 347 926.82 344"/><polygon class="cls-2" points="923.82 349 928.82 351 926.82 355 923.82 353 923.82 354 921.82 353 923.82 349"/><polygon class="cls-2" points="919.82 353 922.82 354 922.82 356 924.82 356 925.82 355 928.82 356 927.82 359 926.82 358 925.82 360 923.82 360 921.82 362 918.82 361 917.82 363 915.82 362 917.82 357 919.82 358 921.82 357 917.82 356 919.82 353"/><polygon class="cls-2" points="927.82 366 933.82 368 932.82 370 934.82 371 933.82 373 927.82 371 928.82 369 927.82 368 927.82 366"/><polygon class="cls-2" points="926.82 374 925.82 375 928.82 377 927.82 378 928.82 379 927.82 380 930.82 382 932.82 378 928.82 376 929.82 375 926.82 374"/><polygon class="cls-2" points="923.82 381 922.82 383 923.82 384 922.82 386 924.82 387 924.82 388 926.82 389 928.82 385 925.82 384 926.82 382 923.82 381"/><polygon class="cls-2" points="920.82 394 923.82 396 925.82 392 922.82 390 923.82 389 920.82 388 919.82 390 921.82 390 919.82 393 920.82 394"/><polygon class="cls-2" points="914.82 393 913.82 394 915.82 396 914.82 398 920.82 401 922.82 398 916.82 396 917.82 395 914.82 393"/><polygon class="cls-2" points="909.82 404 908.82 406 909.82 407 908.82 409 913.82 412 915.82 408 911.82 406 911.82 405 909.82 404"/><polygon class="cls-2" points="903.82 414 902.82 417 905.82 418 903.82 420 905.82 422 907.82 423 907.82 422 909.82 422 911.82 420 906.82 418 907.82 416 903.82 414"/><polygon class="cls-2" points="900.82 420 901.82 421 902.82 419 901.82 418 900.82 420"/><polygon class="cls-2" points="898.82 428 897.82 430 899.82 431 898.82 433 903.82 436 904.82 433 899.82 430 900.82 428 898.82 428"/><rect class="cls-2" x="893.11" y="428.29" width="1.41" height="1.41" transform="translate(-41.55 757.68) rotate(-45)"/><polygon class="cls-2" points="893.82 426 891.82 425 886.82 423 884.82 428 887.82 429 887.82 428 890.82 429 888.82 432 890.82 434 893.82 426"/><polygon class="cls-2" points="892.82 420 895.82 421 898.82 414 895.82 412 892.82 420"/><polygon class="cls-2" points="891.82 408 900.82 413 901.82 411 900.82 410 901.82 409 899.82 407 900.82 405 895.82 403 891.82 408"/><polygon class="cls-2" points="895.82 402 898.82 403 899.82 402 901.82 403 901.82 401 897.82 399 895.82 402"/><polygon class="cls-2" points="898.82 396 900.82 397 900.82 399 902.82 400 903.82 397 902.82 396 902.82 394 899.82 393 898.82 396"/><polygon class="cls-2" points="904.82 394 903.82 396 906.82 397 906.82 395 904.82 394"/><polygon class="cls-2" points="900.82 390 901.82 391 901.82 392 903.82 393 905.82 389 906.82 389 907.82 388 904.82 387 902.82 387 900.82 390"/><polygon class="cls-2" points="905.82 385 908.82 387 909.82 385 908.82 385 910.82 382 908.82 380 907.82 381 906.82 381 905.82 385"/><polygon class="cls-2" points="909.82 376 912.82 378 914.82 374 911.82 373 909.82 376"/><polygon class="cls-2" points="910.82 371 913.82 372 914.82 370 916.82 370 917.82 369 911.82 367 910.82 371"/><polygon class="cls-2" points="916.82 366 915.82 367 917.82 368 917.82 366 916.82 366"/><polygon class="cls-2" points="908.82 352 913.82 355 912.82 358 909.82 357 909.82 355 907.82 354 908.82 352"/><polygon class="cls-2" points="902.82 354 908.82 357 908.82 359 912.82 362 910.82 365 905.82 362 906.82 360 901.82 357 902.82 354"/><polygon class="cls-2" points="896.82 352 898.82 352 901.82 354 899.82 358 900.82 360 897.82 364 891.82 360 892.82 359 894.82 360 896.82 358 893.82 356 896.82 352"/><polygon class="cls-2" points="899.82 365 898.82 367 901.82 368 899.82 372 902.82 373 905.82 370 902.82 368 902.82 367 899.82 365"/><polygon class="cls-2" points="897.82 372 896.82 374 898.82 375 898.82 376 895.82 375 894.82 377 900.82 380 902.82 376 901.82 375 901.82 374 897.82 372"/><polygon class="cls-2" points="893.82 377 892.82 379 895.82 380 894.82 382 897.82 384 899.82 382 898.82 381 898.82 380 893.82 377"/><polygon class="cls-2" points="891.82 384 890.82 386 889.82 388 893.82 391 895.82 388 892.82 386 893.82 385 891.82 384"/><polygon class="cls-2" points="881.82 387 880.82 390 885.82 393 887.82 390 881.82 387"/><polygon class="cls-2" points="886.82 393 891.82 396 893.82 393 888.82 390 886.82 393"/><polygon class="cls-2" points="873.82 394 875.82 395 874.82 396 875.82 397 874.82 399 872.82 399 873.82 396 872.82 395 873.82 394"/><polygon class="cls-2" points="876.82 398 874.82 401 884.82 406 886.82 403 876.82 398"/><polygon class="cls-2" points="869.82 404 866.82 409 867.82 410 862.82 418 869.82 422 875.82 413 881.82 417 884.82 412 877.82 408 879.82 405 878.82 404 875.82 407 869.82 404"/><polygon class="cls-2" points="876.82 416 871.82 426 874.82 428 880.82 418 876.82 416"/><polygon class="cls-2" points="852.82 417 849.82 420 853.82 423 852.82 424 856.82 427 857.82 426 858.82 427 862.82 423 852.82 417"/><polygon class="cls-2" points="862.82 424 858.82 430 860.82 432 861.82 430 864.82 433 867.82 428 862.82 424"/><polygon class="cls-2" points="870.82 431 868.82 434 871.82 435 873.82 433 870.82 431"/><polygon class="cls-2" points="852.82 437 853.82 436 855.82 437 854.82 438 852.82 437"/><polygon class="cls-2" points="860.82 438 861.82 439 860.82 441 859.82 440 860.82 438"/><polygon class="cls-2" points="867.82 436 865.82 439 869.82 441 870.82 437 867.82 436"/><rect class="cls-2" x="863.58" y="440.76" width="4.47" height="4.47" transform="translate(82.38 1019.3) rotate(-63.43)"/><polygon class="cls-2" points="862.82 445 861.82 446 861.82 447 860.82 450 862.82 451 863.82 452 865.82 448 864.82 447 865.82 446 862.82 445"/><polygon class="cls-2" points="874.82 444 877.82 446 878.82 445 881.82 446 879.82 451 877.82 450 877.82 451 874.82 450 874.82 448 872.82 447 874.82 444"/><polygon class="cls-2" points="870.82 451 868.82 455 872.82 457 873.82 456 875.82 457 877.82 452 875.82 451 874.82 453 870.82 451"/><polygon class="cls-2" points="865.82 461 867.82 462 867.82 463 870.82 465 871.82 464 869.82 463 870.82 460 867.82 458 865.82 461"/><polygon class="cls-2" points="872.82 458 870.82 461 875.82 464 876.82 463 878.82 461 872.82 458"/><polygon class="cls-2" points="878.82 477 881.82 479 888.82 471 880.82 466 877.82 469 881.82 473 878.82 477"/><polygon class="cls-2" points="839.82 450 840.82 451 839.82 453 837.82 451 839.82 450"/><polygon class="cls-2" points="850.82 461 853.82 463 852.82 465 855.82 467 853.82 470 851.82 469 852.82 468 850.82 467 850.82 466 848.82 465 850.82 461"/><polygon class="cls-2" points="844.82 467 842.82 469 847.82 471 848.82 469 844.82 467"/><polygon class="cls-2" points="846.82 474 848.82 470 850.82 471 850.82 472 852.82 474 850.82 477 846.82 474"/><polygon class="cls-2" points="859.82 475 858.82 478 860.82 479 861.82 477 863.82 478 864.82 476 860.82 474 859.82 475"/><polygon class="cls-2" points="856.82 488 853.82 487 855.82 483 853.82 482 854.82 481 859.82 483 856.82 488"/><polygon class="cls-2" points="836.82 479 835.82 481 838.82 482 836.82 485 839.82 487 841.82 481 836.82 479"/><polygon class="cls-2" points="835.82 485 834.82 487 836.82 488 837.82 487 835.82 485"/><polygon class="cls-2" points="838.82 487 841.82 488 839.82 491 840.82 492 838.82 495 836.82 495 834.82 494 838.82 487"/><polygon class="cls-2" points="850.82 488 857.82 491 854.82 496 851.82 494 848.82 500 844.33 497.45 850.82 488"/><polygon class="cls-2" points="825.82 517 828.82 516 827.82 514 824.82 515 825.82 517"/><polygon class="cls-2" points="823.82 511 827.82 509 824.82 502 821.82 503 823.82 511"/><polygon class="cls-2" points="826.82 497 828.82 496 832.82 504 834.82 501 838.82 503 835.82 510 831.82 508 831.82 506 830.82 506 826.82 497"/><rect class="cls-2" x="836.2" y="496.15" width="2.24" height="6.71" transform="translate(16.09 1025.04) rotate(-63.43)"/><polygon class="cls-2" points="842.82 503 845.82 504 846.82 503 848.82 504 846.82 507 844.82 506 842.82 508 850.82 512 851.82 510 854.82 511 851.82 517 846.82 514 845.82 516 844.82 515 842.82 518 841.82 521 839.82 520 839.82 519 835.82 516 842.82 503"/><polygon class="cls-2" points="837.82 528 840.82 527 840.82 525 844.82 524 845.82 527 843.82 527 843.82 528 841.82 529 841.82 531 838.82 532 837.82 528"/><polygon class="cls-2" points="839.82 532 844.82 531 845.82 533 842.82 534 843.82 537 839.82 538 839.82 532"/><polygon class="cls-2" points="840.82 539 844.82 538 844.82 536 846.82 535 848.82 537 847.82 539 845.82 540 845.82 541 847.82 540 848.82 542 844.82 543 843.82 542 841.82 542 840.82 539"/><rect class="cls-2" x="848.82" y="536" width="2" height="1"/><polygon class="cls-2" points="842.82 545 845.82 544 846.82 546 847.82 548 846.82 549 847.82 550 847.82 552 843.82 553 842.82 545"/><polygon class="cls-2" points="845.82 556 847.82 558 849.82 558 849.82 557 850.82 556 849.82 554 845.82 556"/><polygon class="cls-2" points="849.82 545 850.82 549 851.82 549 852.82 551 855.82 550 855.82 551 858.82 549 859.82 551 862.82 549 859.82 544 854.82 547 852.82 548 851.82 545 849.82 545"/><polygon class="cls-2" points="873.82 545 877.82 548 877.82 547 879.82 549 877.82 551 876.82 550 874.82 552 871.82 549 872.82 548 871.82 547 873.82 545"/><polygon class="cls-2" points="865.82 549 862.82 551 869.82 557 871.82 554 869.82 552 870.82 552 871.82 551 869.82 549 867.82 551 865.82 549"/><polygon class="cls-2" points="861.82 552 862.82 554 861.82 555 862.82 557 864.82 555 867.82 557 864.82 562 857.82 557 861.82 552"/><polygon class="cls-2" points="866.82 570 865.82 572 866.82 573 864.82 575 866.82 577 871.82 573 866.82 570"/><polygon class="cls-2" points="850.82 564 847.82 566 851.82 569 854.82 567 853.82 566 852.82 567 850.82 566 852.82 565 850.82 564"/><polygon class="cls-2" points="851.82 571 854.82 568 855.82 569 856.82 568 859.82 570 855.82 574 851.82 571"/><polygon class="cls-2" points="859.82 575 858.82 576 859.82 578 858.82 580 859.82 581 857.82 583 860.82 585 864.82 580 861.82 578 862.82 577 859.82 575"/><polygon class="cls-2" points="993.82 486 992.82 491 996.82 492 997.82 487 993.82 486"/><polygon class="cls-2" points="991.82 483 985.82 482 983.82 490 985.82 490 983.82 495 986.82 495 989.82 495 989.82 492 987.82 492 991.82 483"/><polygon class="cls-2" points="950.82 491 953.82 488 958.82 492 957.82 494 955.82 494 953.82 498 951.82 496 952.82 495 950.82 494 952.82 492 950.82 491"/><polygon class="cls-2" points="936.82 483 938.82 480 939.82 482 938.82 484 936.82 483"/><polygon class="cls-2" points="944.82 492 947.82 495 948.82 494 951.82 497 950.82 498 948.82 497 946.82 499 943.82 497 944.82 496 941.82 495 944.82 492"/><polygon class="cls-2" points="948.82 505 947.82 506 948.82 507 950.82 506 948.82 505"/><polygon class="cls-2" points="946.82 506 944.82 509 945.82 510 943.82 513 946.82 515 948.82 513 947.82 512 949.82 510 947.82 509 948.82 508 946.82 506"/><polygon class="cls-2" points="939.82 499 942.82 501 943.82 500 946.82 502 944.82 504 943.82 503 941.82 505 941.82 506 940.82 508 938.82 506 939.82 505 938.82 504 939.82 502 937.82 501 939.82 499"/><polygon class="cls-2" points="937.82 517 933.82 521 940.82 525 942.82 522 942.82 520 937.82 517"/><polygon class="cls-2" points="951.82 533 954.82 531 957.82 537 954.82 539 951.82 533"/><polygon class="cls-2" points="949.82 529 947.82 532 945.82 530 946.82 529 945.82 528 943.82 529 942.82 527 946.82 523 949.82 526 949.82 529"/><rect class="cls-2" x="937.61" y="532.09" width="1.41" height="2.83" transform="translate(-102.41 819.75) rotate(-45)"/><polygon class="cls-2" points="928.82 525 926.82 528 927.82 529 924.82 532 927.82 534 930.82 530 928.82 528 929.82 526 928.82 525"/><polygon class="cls-2" points="917.82 480 920.82 482 921.82 480 920.82 480 921.82 478 919.82 477 917.82 480"/><polygon class="cls-2" points="927.82 498 923.82 495 926.82 492 924.82 491 928.82 487 930.82 488 931.82 486 934.82 488 935.82 489 933.82 493 931.82 492 927.82 498"/><polygon class="cls-2" points="915.82 486 914.82 488 916.82 489 917.82 488 915.82 486"/><polygon class="cls-2" points="912.82 491 910.82 493 912.82 495 910.82 497 912.82 498 910.82 499 913.82 502 916.82 497 914.82 495 915.82 493 912.82 491"/><polygon class="cls-2" points="920.82 501 918.82 503 922.82 506 921.82 507 923.82 509 926.82 505 920.82 501"/><polygon class="cls-2" points="900.82 506 902.82 504 903.82 505 904.82 504 907.82 507 909.82 505 911.82 507 909.82 509 907.82 508 905.82 510 900.82 506"/><polygon class="cls-2" points="915.82 509 914.82 510 915.82 512 912.82 515 915.82 517 919.82 513 917.82 512 918.82 511 915.82 509"/><polygon class="cls-2" points="894.82 509 891.82 513 892.82 514 893.82 513 894.82 514 895.82 513 902.82 520 903.82 519 907.82 523 907.82 524 909.82 525 911.82 523 910.82 522 911.82 522 894.82 509"/><polygon class="cls-2" points="908.82 537 911.82 539 912.82 538 914.82 540 912.82 542 915.82 544 915.82 545 918.82 547 917.82 548 921.82 550 923.82 547 920.82 545 921.82 544 918.82 542 919.82 541 915.82 539 916.82 537 913.82 535 912.82 536 910.82 534 908.82 537"/><polygon class="cls-2" points="926.82 544 924.82 546 927.82 549 929.82 546 926.82 544"/><polygon class="cls-2" points="925.82 549 924.82 550 926.82 551 927.82 550 925.82 549"/><polygon class="cls-2" points="965.82 553 969.82 553 969.82 555 968.82 555 968.82 557 970.82 557 970.82 560 966.82 559 966.82 557 964.82 557 965.82 553"/><polygon class="cls-2" points="952.82 560 955.82 561 954.82 568 957.82 569 956.82 572 949.82 570 950.82 569 951.82 569 951.82 568 950.82 567 952.82 560"/><polygon class="cls-2" points="887.82 580 885.82 582 886.82 583 885.82 584 886.82 585 889.82 585 891.82 587 893.82 584 889.82 580 888.82 582 887.82 580"/><polygon class="cls-2" points="895.82 586 898.82 586 898.82 588 901.82 588 902.82 592 900.82 592 901.82 593 900.82 595 898.82 593 898.82 592 895.82 592 895.82 586"/><polygon class="cls-2" points="897.82 596 896.82 596 896.82 597 897.82 598 898.82 598 898.82 596 897.82 596"/><polygon class="cls-2" points="902.82 595 904.82 597 905.82 596 908.82 598 910.82 595 907.82 592 903.82 593 902.82 595"/><polygon class="cls-2" points="910.82 601 911.82 602 914.82 599 912.82 597 910.82 601"/><polygon class="cls-2" points="914.82 588 917.82 584 924.82 589 920.82 593 918.82 592 920.82 590 918.82 589 916.82 589 914.82 588"/><polygon class="cls-2" points="930.82 593 925.82 593 925.82 597 926.82 599 926.82 602 930.82 602.05 930.82 593"/><polygon class="cls-2" points="935.82 617 936.82 616 939.82 616 938.82 621 937.82 621 935.82 619 935.82 617"/><polygon class="cls-2" points="920.82 621 917.82 621 917.82 624 919.82 625 919.82 627 920.82 627 921.82 629 928.82 628 926.82 624 921.82 625 920.82 621"/><rect class="cls-2" x="791.2" y="532.09" width="4.24" height="2.83" transform="translate(-144.88 717.22) rotate(-45)"/><polygon class="cls-2" points="803.82 530 798.82 536 799.82 537 796.82 539 802.82 544 804.82 542 800.82 538 806.82 532 803.82 530"/><polygon class="cls-2" points="804.82 545 808.82 542 807.82 541 809.82 540 814.82 546 811.82 548 809.82 545 805.82 547 804.82 545"/><polygon class="cls-2" points="792.82 560 796.82 564 802.82 557 801.82 557 803.82 554 805.82 556 807.82 553 802.82 550 800.82 553 801.82 554 800.82 555 797.82 553 792.82 560"/><polygon class="cls-2" points="808.82 565 812.82 564 811.82 556 816.82 555 815.82 553 810.82 554 809.82 556 808.82 556 808.82 565"/><polygon class="cls-2" points="817.82 553 817.82 559 820.82 577 823.82 577 823.82 578 826.82 578 826.82 576 828.82 576 828.82 579 831.82 578 831.82 576 833.82 576 830.82 554 827.82 555 827.82 560 823.82 560 823.82 562 820.82 562 820.82 555 823.82 555 823.82 551 817.82 553"/><polygon class="cls-2" points="825.82 551 826.82 554 830.82 553 829.82 550 825.82 551"/><polygon class="cls-2" points="839.82 548 839.82 550 837.82 551 837.82 552 839.82 552 839.82 555 837.82 556 838.82 561 835.82 561 833.82 548 839.82 548"/><polygon class="cls-2" points="837.82 573 839.82 573 839.82 574 843.82 574 843.82 588 841.82 588 841.82 589 838.82 589 836.82 573 837.82 573"/><polyline class="cls-2" points="838.82 591 843.82 589 845.82 593 841.82 596 838.82 591 838.82 591"/><polygon class="cls-2" points="822.82 578 811.82 579 812.82 587 811.82 587 813.82 606 824.82 604 823.82 598 824.82 598 822.82 578"/><rect class="cls-2" x="841.82" y="601" width="2" height="2"/><rect class="cls-2" x="846.11" y="600.29" width="1.41" height="1.41" transform="translate(-176.94 774.82) rotate(-45)"/><polygon class="cls-2" points="848.82 594 846.82 596 847.82 597 846.82 599 849.82 602 847.82 603 850.82 605 854.82 601 855.82 602 856.82 601 857.82 603 860.82 600 854.82 595 852.82 598 848.82 594"/><polygon class="cls-2" points="821.82 611 815.82 619 822.82 624 828.82 616 821.82 611"/><polygon class="cls-2" points="866.82 644 860.82 638 876.82 620 882.82 626 866.82 644"/><polygon class="cls-2" points="875.82 617 863.82 607 851.82 619 853.82 621 845.82 629 852.82 636 856.82 632 857.82 633 860.82 629 861.82 630 865.82 626 863.82 625 866.82 623 868.82 625 875.82 617"/><polygon class="cls-2" points="733.82 485 729.82 487 731.82 490 722.82 494 723.82 497 721.82 498 723.82 504 724.82 506 727.82 505 726.82 502 733.82 498 734.82 500 739.82 498 736.82 491 737.82 491 736.82 488 734.82 489 733.82 485"/><polygon class="cls-2" points="695.82 511 696.82 510 697.82 512 698.82 512 700.82 516 695.82 518 693.82 515 696.82 514 695.82 511"/><polygon class="cls-2" points="687.82 512 685.82 513 686.82 516 684.82 517 685.82 519 689.82 518 687.82 515 687.82 512"/><polygon class="cls-2" points="673.82 502 666.82 505 668.82 510 675.82 507 673.82 502"/><polygon class="cls-2" points="660.82 514 667.82 511 668.82 514 661.82 517 660.82 514"/><polygon class="cls-2" points="657.82 519 660.82 518 661.82 522 663.82 521 665.82 528 661.82 529 660.82 527 661.82 526 660.82 523 659.82 523 657.82 519"/><polygon class="cls-2" points="708.82 221 711.82 221 711.82 218 714.82 219 714.82 227 716.82 228 715.82 231 711.82 230 710.82 226 706.82 225 708.82 221"/><polygon class="cls-2" points="719.82 221 717.82 223 722.82 226 723.82 224 719.82 221"/><polygon class="cls-2" points="666.82 218 668.82 219 668.82 221 665.82 220 666.82 218"/><polygon class="cls-2" points="660.82 195 668.82 197 662.82 223 667.82 224 666.82 228 659.82 227 659.16 229.64 658.82 231 653.82 230 655.82 226 651.82 225 649.82 233 643.82 231 647.82 219 653.82 220 660.82 195"/><polygon class="cls-2" points="668.82 232 658.82 229 656.82 233 665.82 236 668.82 232"/><polygon class="cls-2" points="651.82 240 655.82 241 653.82 248 649.82 246 651.82 240"/><polygon class="cls-2" points="648.82 248 645.82 248 643.82 250 645.82 253 649.82 254 651.82 251 648.82 248"/><rect class="cls-2" x="624.82" y="221" width="8" height="3"/><polygon class="cls-2" points="622.82 219 625.82 219 626.82 210 623.82 210 623.82 213 621.82 213 622.82 219"/><polygon class="cls-2" points="558.82 185 566.82 186 564.82 193 567.82 194 567.82 197 560.82 195 561.82 190 557.82 188 558.82 185"/><polygon class="cls-2" points="104.82 716 101.82 717 100.82 719 101.82 722 104.82 722 106.82 720 106.82 718 104.82 716"/><polygon class="cls-2" points="108.82 706 122.82 704 124.82 711 110.82 713 108.82 706"/><polygon class="cls-2" points="110.82 715 124.82 713 125.82 720 112.82 722 110.82 715"/><polygon class="cls-2" points="124.82 739 129.82 738 125.82 722 112.82 724 112.82 727 99.82 729 101.82 742 113.82 740 111.82 731 121.82 729 124.82 739"/><polygon class="cls-2" points="119.82 739 114.82 741 115.82 745 116.82 745 116.82 743 120.82 742 119.82 739"/><polygon class="cls-2" points="106.82 883 119.82 892 128.82 879 117.82 873 110.82 874 106.82 883"/><polygon class="cls-2" points="105.82 873 104.82 876 101.82 877 99.82 876 98.82 873 105.82 873"/><polygon class="cls-2" points="95.82 872 92.82 873 89.82 870 89.82 866 92.82 864 95.82 864 98.82 867 97.82 871 95.82 872"/><polygon class="cls-2" points="80.82 869 86.82 873 83.82 877 77.82 874 80.82 869"/><polygon class="cls-2" points="94.82 882 101.82 886 97.82 893 91.82 889 94.82 882"/><polygon class="cls-2" points="103.82 894 107.82 897 104.82 899 102.82 899 101.82 896 103.82 894"/><polygon class="cls-2" points="401.82 905 407.82 909 392.82 934 385.82 931 401.82 905"/><polygon class="cls-2" points="388.82 906 394.82 909 390.82 915 384.82 911 388.82 906"/><polygon class="cls-2" points="384.82 919 387.82 921 386.82 923 387.82 923 386.82 924 383.82 923 384.82 919"/><polygon class="cls-2" points="378.82 924 376.82 927 382.82 930 384.82 927 378.82 924"/><polygon class="cls-2" points="186.82 714 193.82 714 192.82 721 192.82 726 187.82 726 186.82 723 188.82 723 186.82 714"/><polygon class="cls-2" points="196.82 720 197.82 725 199.82 724 198.82 720 196.82 720"/><polygon class="cls-2" points="262.82 705 260.82 710 265.82 712 263.82 714 270.82 717 272.82 712 269.82 710 271.82 707 275.82 708 276.82 705 268.82 703 267.82 706 262.82 705"/><polygon class="cls-2" points="376.82 692 381.82 692 382.82 695 376.82 695 376.82 692"/><polygon class="cls-2" points="385.82 693 394.82 693 394.82 699 388.82 699 388.82 705 393.82 705 393.82 708 386.82 708 386.82 705 385.82 705 385.82 703 382.82 703 382.82 698 385.82 698 385.82 693"/><polygon class="cls-2" points="424.82 720 423.82 724 424.82 724 421.82 734 421.82 737 427.82 739 428.82 735 424.82 735 427.82 724 429.82 725 430.82 721 424.82 720"/><polygon class="cls-2" points="432.82 725 430.82 732 440.82 734 441.82 728 432.82 725"/><polygon class="cls-2" points="421.82 770 424.82 770 423.82 773 421.82 772 421.82 770"/><polygon class="cls-2" points="459.82 757 462.82 757 464.82 760 462.82 763 458.82 763 456.82 759 459.82 757"/><rect class="cls-2" x="449.82" y="770" width="7" height="10"/><polygon class="cls-2" points="462.82 785 465.82 786 467.82 788 465.82 790 464.82 791 461.82 790 461.82 787 462.82 785"/><rect class="cls-2" x="461.82" y="768" width="4" height="8"/><polygon class="cls-2" points="467.82 759 475.82 758 475.82 767 473.82 767 473.82 784 481.82 784 481.82 787 468.82 787 467.82 759"/><polygon class="cls-2" points="712.82 769 716.82 770 714.82 777 710.82 776 712.82 769"/><polygon class="cls-2" points="712.82 781 714.82 782 713.82 784 716.82 785 714.82 788 708.82 786 709.82 782 711.82 783 712.82 781"/><polygon class="cls-2" points="780.82 855 790.82 860 788.82 865 777.82 861 780.82 855"/><polygon class="cls-2" points="769.82 829 775.82 831 777.82 831 778.82 833 776.82 833 775.82 835 768.82 832 769.82 829"/><polygon class="cls-2" points="793.82 832 796.82 833 792.82 841 789.82 839 793.82 832"/><polygon class="cls-2" points="782.82 832 776.82 847 781.82 848 783.82 844 781.82 843 783.82 838 785.82 839 788.82 834 782.82 832"/><polygon class="cls-2" points="966.82 897 973.82 899 970.82 911 962.82 909 966.82 897"/><polygon class="cls-2" points="950.82 913 952.82 914 951.82 916 949.82 915 949.82 914 946.82 913 953.82 883 958.82 885 950.82 913"/><polygon class="cls-2" points="945.82 883 949.82 883 951.82 888 948.82 891 945.82 891 943.82 888 943.82 885 945.82 883"/><polygon class="cls-2" points="945.82 893 948.82 893 949.82 895 947.82 898 945.82 897 944.82 894 945.82 893"/><polygon class="cls-2" points="941.82 899 945.82 899 947.82 903 944.82 906 941.82 906 939.82 903 941.82 899"/><polygon class="cls-2" points="1069.82 914 1068.82 916 1071.82 916 1072.82 914 1069.82 914"/><polygon class="cls-2" points="1065.82 917 1067.82 917 1067.82 924 1063.82 924 1065.82 917"/><polygon class="cls-2" points="1064.82 925 1068.82 925 1067.82 929 1063.82 928 1064.82 925"/><polygon class="cls-2" points="1388.82 888 1393.82 888 1394.82 892 1388.82 892 1388.82 888"/><polygon class="cls-2" points="1499.82 921 1504.82 923 1506.82 918 1514.82 920 1514.82 914 1501.82 912 1499.82 921"/><polygon class="cls-2" points="1456.82 854 1456.82 856 1459.82 857 1460.82 854 1456.82 854"/><polygon class="cls-2" points="1461.82 858 1461.82 861 1462.82 861 1462.82 864 1470.82 864 1469.82 860 1464.82 860 1464.82 858 1461.82 858"/><polygon class="cls-2" points="1591.82 918 1590.82 924 1601.82 926 1602.82 919 1591.82 918"/><polygon class="cls-2" points="1608.82 872 1608.82 877 1612.82 877 1613.93 871.02 1608.82 872"/><polygon class="cls-2" points="1696.82 891 1695.82 893 1695.82 895 1693.82 897 1697.82 899 1699.82 896 1700.82 897 1696.82 903 1703.82 905 1705.82 902 1701.82 901 1704.28 895.77 1696.82 891"/><polygon class="cls-2" points="1704.82 913 1707.82 914 1709.82 911 1711.82 912 1716.52 909.54 1711.53 903.92 1704.82 913"/><polygon class="cls-2" points="1730.82 840 1737.82 840 1736.82 844 1730.82 844 1730.82 840"/><polygon class="cls-2" points="1725.82 846 1722.82 846 1722.82 849 1723.82 850 1726.82 851 1727.82 848 1725.82 846"/><polygon class="cls-2" points="1730.82 848 1730.82 856 1733.82 856 1733.82 859 1738.82 859 1738.82 856 1734.82 856 1736.82 852 1739.82 853 1739.82 855 1742.82 855 1742.82 847 1730.82 848"/><polygon class="cls-2" points="1666.82 774 1672.82 775 1671.82 782 1665.82 781 1666.82 774"/><rect class="cls-2" x="1689.82" y="777" width="5" height="6"/><polygon class="cls-2" points="1672.82 783 1686.82 785 1685.82 791 1672.82 789 1671.82 795 1665.82 795 1667.82 786 1672.82 787 1672.82 783"/><polygon class="cls-2" points="1677.82 795 1680.82 795 1678.82 803 1672.82 801 1672.82 797 1676.82 798 1677.82 795"/><polygon class="cls-2" points="1716.82 688 1718.82 688 1719.82 686 1717.82 686 1716.82 688"/><polygon class="cls-2" points="1705.82 670 1702.82 670 1700.82 671 1701.82 672 1703.82 673 1705.82 672 1705.82 670"/><polygon class="cls-2" points="1696.82 672 1701.82 673 1698.82 682 1700.82 683 1702.82 674 1717.82 677 1716.82 685 1713.82 684 1713.82 680 1707.82 679 1706.82 683 1709.82 683 1709.82 685 1714.82 686 1713.82 690 1706.82 688 1706.82 685 1702.82 684 1701.82 689 1693.82 687 1696.82 672"/><polygon class="cls-2" points="1518.82 705 1510.82 703 1511.82 699 1517.82 701 1517.82 703 1518.82 703 1518.82 705"/><polygon class="cls-2" points="1511.82 693 1510.82 698 1522.82 701 1523.82 693 1520.82 692 1519.82 697 1511.82 693"/><polygon class="cls-2" points="1540.82 709 1540.82 712 1545.82 712 1545.82 711 1547.82 711 1548.63 705.91 1540.82 709"/><polygon class="cls-2" points="1337.82 760 1340.82 759 1338.82 753 1334.82 755 1337.82 760"/><polygon class="cls-2" points="1335.82 764 1341.82 763 1342.82 765 1340.82 767 1341.82 769 1337.82 769 1335.82 764"/><polygon class="cls-2" points="1321.82 751 1312.82 753 1314.82 761 1323.82 758 1321.82 751"/><rect class="cls-2" x="1354.82" y="703" width="1" height="22"/><rect class="cls-2" x="1352.82" y="704" width="1" height="21"/><rect class="cls-2" x="1350.82" y="706" width="1" height="19"/><rect class="cls-2" x="1348.82" y="705" width="1" height="20"/><rect class="cls-2" x="1346.82" y="706" width="1" height="19"/><rect class="cls-2" x="1344.82" y="707" width="1" height="18"/><rect class="cls-2" x="1341.82" y="708" width="1" height="17"/><rect class="cls-2" x="1339.82" y="709" width="1" height="16"/><rect class="cls-2" x="1337.82" y="710" width="1" height="15"/><rect class="cls-2" x="1335.82" y="710" width="1" height="15"/><rect class="cls-2" x="1333.82" y="711" width="1" height="15"/><rect class="cls-2" x="1258.2" y="610.38" width="2.24" height="2.24" transform="translate(-140.52 627.74) rotate(-26.57)"/><polygon class="cls-2" points="1264.82 606 1269.82 603 1270.82 605 1265.82 607 1264.82 606"/><polygon class="cls-2" points="1268.82 607 1273.82 604 1278.82 612 1274.82 614 1272.82 608 1269.82 609 1268.82 607"/><polygon class="cls-2" points="1257.82 563 1261.82 561 1262.82 563 1260.82 565 1261.82 566 1264.82 565 1266.82 569 1263.82 571 1262.82 568 1260.02 569.97 1257.82 563"/><polygon class="cls-2" points="1374.82 575 1372.82 578 1374.82 579 1372.82 581 1375.82 583 1384.82 588 1388.82 582 1383.82 580 1382.82 583 1376.82 580 1378.82 577 1374.82 575"/><polygon class="cls-2" points="1380.82 591 1377.82 596 1381.82 599 1384.82 593 1380.82 591"/><polygon class="cls-2" points="1371.82 513 1363.82 511 1365.82 497 1372.82 499 1371.82 504 1368.82 503 1367.82 509 1372.82 509 1371.82 513"/><polygon class="cls-2" points="1349.82 491 1347.82 493 1347.82 496 1350.82 497 1352.82 495 1352.82 492 1349.82 491"/><polygon class="cls-2" points="1354.82 486 1358.82 486 1359.82 496 1355.82 497 1354.82 486"/><rect class="cls-2" x="1354.82" y="468" width="4" height="2"/><rect class="cls-2" x="1363.82" y="470" width="3" height="2"/><polygon class="cls-2" points="1360.82 473 1363.82 473 1363.82 476 1365.82 476 1365.82 479 1359.82 479 1359.82 476 1360.82 476 1360.82 473"/><polygon class="cls-2" points="1352.82 430 1361.82 431 1361.82 434 1358.82 434 1358.82 437 1353.82 436 1354.82 434 1352.82 434 1352.82 430"/><polygon class="cls-2" points="1293.82 406 1296.82 407 1297.82 409 1300.82 409 1300.82 412 1293.82 411 1293.82 406"/><rect class="cls-2" x="1349.82" y="408" width="2" height="3"/><polygon class="cls-2" points="1357.82 396 1360.82 396 1362.82 399 1359.82 401 1357.82 401 1356.82 399 1357.82 396"/><rect class="cls-2" x="1363.82" y="397" width="8" height="5"/><polygon class="cls-2" points="1356.82 404 1365.82 404 1365.82 406 1370.82 406 1370.82 413 1367.82 413 1367.82 410 1365.82 410 1365.82 413 1362.82 413 1362.82 409 1356.82 409 1356.82 404"/><rect class="cls-2" x="1363.82" y="414" width="7" height="3"/><polygon class="cls-2" points="1454.82 446 1456.82 447 1455.82 451 1453.82 450 1454.82 446"/><polygon class="cls-2" points="1461.82 448 1468.82 450 1466.82 455 1463.82 454 1462.82 458 1464.82 459 1463.82 462 1458.82 460 1461.82 448"/><polygon class="cls-2" points="1469.82 451 1469.82 457 1471.82 451 1469.82 451"/><polygon class="cls-2" points="1538.82 505 1537.82 508 1540.82 508 1540.82 511 1547.82 513 1549.82 510 1544.82 509 1545.82 506 1538.82 505"/><polygon class="cls-2" points="1558.82 506 1556.82 512 1563.82 514 1565.82 508 1558.82 506"/><polygon class="cls-2" points="1600.82 521 1599.82 525 1603.82 525 1604.82 521 1600.82 521"/><polygon class="cls-2" points="1612.82 528 1612.82 532 1615.82 532 1615.82 535 1619.82 535 1619.82 528 1612.82 528"/><polygon class="cls-2" points="1749.82 508 1751.82 508 1754.82 510 1753.82 513 1751.82 514 1749.82 513 1747.82 511 1749.82 508"/><polygon class="cls-2" points="1732.82 512 1731.82 515 1738.82 518 1739.82 514 1741.82 514 1745.82 502 1746.82 502 1747.82 501 1745.82 500 1746.82 499 1741.82 497 1742.82 495 1723.82 489 1721.82 496 1729.82 499 1728.82 503 1732.82 505 1734.82 503 1737.82 501 1739.82 503 1736.82 514 1732.82 512"/><polygon class="cls-2" points="1137.82 526 1140.82 528 1138.82 529 1136.82 528 1137.82 526"/><polygon class="cls-2" points="1161.82 533 1160.82 535 1161.82 536 1163.82 535 1161.82 533"/><polygon class="cls-2" points="1154.82 531 1151.82 535 1154.82 538 1157.82 535 1154.82 531"/><polygon class="cls-2" points="1155.82 528 1159.82 529 1161.82 526 1160.82 525 1162.82 523 1155.82 518 1153.82 520 1155.82 522 1153.82 525 1154.82 526 1157.82 524 1158.82 525 1155.82 528"/><polygon class="cls-2" points="1154.82 516 1153.82 516 1152.82 517 1153.82 518 1154.82 516"/><polygon class="cls-2" points="1172.82 509 1176.82 511 1177.82 508 1175.82 507 1178.82 503 1180.82 503 1182.82 500 1177.82 497 1172.82 505 1174.82 507 1172.82 509"/><polygon class="cls-2" points="1187.82 508 1185.82 512 1186.82 513 1189.82 509 1187.82 508"/><polygon class="cls-2" points="1138.82 481 1137.82 483 1140.82 485 1139.82 487 1141.82 489 1143.82 486 1141.82 484 1141.82 483 1138.82 481"/><rect class="cls-2" x="1136.61" y="473.09" width="1.41" height="2.83" transform="translate(-2.41 943.19) rotate(-45)"/><polygon class="cls-2" points="1130.82 472 1129.82 475 1130.82 475 1127.82 478 1131.82 481 1132.82 477 1132.82 475 1130.82 472"/><polygon class="cls-2" points="1121.82 488 1123.82 486 1124.82 487 1125.82 485 1129.82 488 1128.82 490 1123.82 488 1122.82 489 1121.82 488"/><polygon class="cls-2" points="1116.82 481 1115.82 482 1117.82 484 1120.82 484 1121.82 483 1119.82 481 1118.82 483 1116.82 481"/><polygon class="cls-2" points="1119.82 464 1116.82 467 1118.82 469 1116.82 470 1121.82 475 1123.82 471 1120.82 468 1121.82 465 1119.82 464"/><polygon class="cls-2" points="1094.82 463 1093.82 465 1097.82 468 1099.82 466 1094.82 463"/><polygon class="cls-2" points="1102.82 470 1100.82 472 1102.82 474 1104.82 471 1102.82 470"/><polygon class="cls-2" points="1101.82 475 1099.82 479 1103.82 480 1105.82 476 1101.82 475"/><polygon class="cls-2" points="1093.82 483 1096.82 485 1094.82 486 1092.82 485 1093.82 483"/><polygon class="cls-2" points="1089.82 481 1091.82 482 1089.82 485 1087.82 483 1089.82 481"/><polygon class="cls-2" points="1084.82 479 1086.82 481 1083.82 485 1081.82 483 1084.82 479"/><polygon class="cls-2" points="1077.82 449 1075.82 451 1077.82 453 1076.82 453 1073.82 453 1070.82 455 1072.82 458 1075.82 455 1077.82 456 1080.82 453 1077.82 449"/><polygon class="cls-2" points="546.82 560 542.82 564 544.82 566 547.82 564 546.82 562 548.82 561 546.82 560"/><polygon class="cls-2" points="557.82 564 554.82 567 558.82 573 560.82 571 557.82 568 559.82 566 557.82 564"/><polygon class="cls-2" points="565.82 564 563.82 567 565.82 568 567.82 566 565.82 564"/><polygon class="cls-2" points="285.82 472 288.82 472 290.82 475 288.82 477 285.82 477 283.82 475 285.82 472"/><polygon class="cls-2" points="280.82 478 287.82 481 279.82 495 272.82 491 280.82 478"/><polygon class="cls-2" points="289.82 482 294.82 485 287.82 498 282.82 495 289.82 482"/><polygon class="cls-2" points="296.82 486 302.82 487 302.82 488 306.82 489 305.82 493 300.82 492 300.82 495 295.82 494 296.82 486"/><polygon class="cls-2" points="299.82 497 303.82 498 303.82 501 301.82 500 301.82 502 297.82 502 299.82 497"/><polygon class="cls-2" points="310.82 493 314.82 494 313.82 500 308.82 499 310.82 493"/><polygon class="cls-2" points="331.82 262 328.82 264 328.82 268 331.82 269 333.82 269 335.82 267 335.82 263 331.82 262"/><polygon class="cls-2" points="885.82 651 887.82 652 886.82 655 884.82 653 885.82 651"/><polygon class="cls-2" points="819.82 651 825.82 655 822.82 658 815.82 653 819.82 651"/><polygon class="cls-2" points="919.82 774 921.82 776 923.82 773 924.82 773 926.82 769 924.82 767 923.82 769 920.82 769 919.82 774"/><polygon class="cls-2" points="947.82 684 953.82 684 951.82 688 956.82 689 955.82 692 947.82 691 944.82 693 941.82 692 940.82 695 937.82 693 938.82 691 934.82 689.5 936.82 687 941.82 689 947.82 684"/><polygon class="cls-2" points="967.82 695 974.82 695 974.82 689 978.82 689 978.82 683 988.82 683 988.82 677 979.82 677 979.82 680 973.82 681 973.82 684 966.82 684 966.82 688 970.82 688 971.82 692 967.82 693 967.82 695"/><polygon class="cls-2" points="994.82 758 998.82 759 998.82 762 993.82 762 994.82 758"/><polygon class="cls-2" points="987.82 753 992.82 753 991.82 759 990.82 759 990.82 761 980.82 761 981.82 757 986.82 757 987.82 753"/><polygon class="cls-2" points="978.82 749 980.82 748 980.82 751 978.82 751 978.82 749"/><polygon class="cls-2" points="1056.82 775 1058.82 775 1057.82 778 1055.82 778 1056.82 775"/><polygon class="cls-2" points="1548.82 744 1558.82 744 1558.82 748 1553.82 748 1553.82 752 1556.82 753 1556.82 756 1550.82 756 1550.82 752 1548.82 752 1548.82 744"/></g><g id="Grn"><polygon class="cls-3" points="905.82 298 933.82 309 925.82 333 896.82 320 905.82 298"/><polygon class="cls-3" points="872.82 603 933.82 602 917.82 623 926.82 643 950.82 620 959.82 669 955.82 680 872.82 603"/><polygon class="cls-3" points="972.82 676 960.82 662 961.82 671 956.82 682 960.82 688 972.82 676"/><polygon class="cls-3" points="934.82 691 927.82 695 899.82 690 893.82 681 899.82 631 934.82 663 934.82 691"/><polygon class="cls-3" points="567.82 632 540.82 607 530.82 603 563.82 576 733.82 509 749.82 508 758.82 513 800.82 547 784.82 568 793.82 574 767.82 612 740.82 617 656.82 571 567.82 632"/><polygon class="cls-3" points="621.82 691 703.82 678 742.82 694 723.82 758 662.82 745 678.82 705 621.82 691"/><polygon class="cls-3" points="79.82 308 145.82 344 155.82 323 228.82 349 325.82 389 332.82 288 90.82 249 79.82 308"/><polygon class="cls-3" points="82.82 -3 -1.18 140 -1.18 106 59.82 -3 82.82 -3"/><polygon class="cls-3" points="1204.82 756 1173.82 859 1280.82 871 1285.82 822 1302.82 815 1292.82 787 1307.82 781 1320.82 808 1347.82 796 1333.82 762 1302.82 769 1293.82 732 1329.82 718 1330.82 706 1204.82 756"/><polygon class="cls-3" points="1755.82 106 1669.82 329 1701.82 332 1753.82 217 1734.82 211 1753.82 167 1748.82 163 1759.82 138 1755.82 106"/><polyline class="cls-3" points="1818.82 485 1804.82 493 1804.82 519 1809.82 527 1818.82 555"/></g><g id="Vand"><polyline class="cls-4" points="501.32 806.5 501.32 901.5 511.32 901.5 511.32 918.5 506.32 924.5 506.82 934"/><polyline class="cls-4" points="-3.18 155 8.82 155 65.82 172 86.82 169 92.82 174 101.82 174 103.82 171 124.82 172 133.82 174 138.82 178 160.82 180 169.82 184 179.82 184 185.82 184 193.82 188 200.82 188 209.82 191 225.82 194 281.82 199 287.82 193 294.82 196 312.82 196 330.82 199 344.82 203 368.82 214"/><polyline class="cls-5" points="1460.32 -3.5 1429.32 98.5 1440.32 176.5 1492.32 234.5 1533.32 270.5 1520.32 301.5 1631.32 388.5 1685.32 411.5 1714.32 434.5 1751.32 473.5 1763.32 493.5 1833.32 536.5"/></g><g id="Veje"><path class="cls-6" d="M881.82,569l-20.89,24.48Z"/><polyline class="cls-6" points="919.82 599 881.82 570 913.82 529 930.82 508 948.82 485 960.82 452 934.82 440 926.82 454 878.82 430 833.82 518 852.82 586 862.61 595.02 903.82 633 955.82 682 963.82 696 968.82 715 981.82 791 994.82 845 1012.82 914 1022.82 939"/><polyline class="cls-6" points="858.82 419 876.69 434.16 878.82 430 892.82 405 878.82 398"/><polyline class="cls-6" points="955.82 682 960.82 670 952.82 624 952.82 613 961.82 564 962.82 541 958.82 531 929.91 509.12 932.98 505.24 921.82 498"/><polyline class="cls-6" points="899.82 509 918.75 522.91 913.82 529 928.82 541"/><polyline class="cls-6" points="876.82 555 866.82 568 876.82 574.86"/><line class="cls-6" x1="851.82" y1="552" x2="844.16" y2="555"/><polyline class="cls-6" points="982.82 494 959.82 490 948.82 485"/><polyline class="cls-6" points="960.82 452 994.82 375 980.82 367 955.82 341 937.82 377 959.82 387 934.82 440"/><line class="cls-6" x1="937.82" y1="377" x2="905.37" y2="443.28"/><polyline class="cls-6" points="891.89 404.54 918.82 352 930.82 336 909.82 328 907.82 333"/><polyline class="cls-6" points="930.82 336 941.82 327 955.82 341 941.82 327 948.82 313 965.82 320 948.82 313 938.82 309 948.82 286 958.82 289 948.82 313 938.82 309 871.82 283 867.82 278 885.82 214 975.82 237 972.82 253 958.82 289"/><line class="cls-6" x1="951.82" y1="265" x2="966.19" y2="270.05"/><polyline class="cls-6" points="961.82 281.29 979.82 288 1002.82 289 1009.82 286 1017.82 275 1034.82 232 976.82 225 975.82 237 976.82 225 985.82 154 985.82 135 974.82 73 966.82 24 966.82 11 966.82 -5"/><polyline class="cls-6" points="1034.82 232 1063.82 225 1164.82 171 1178.82 160 1206.82 129 1244.82 76 1313.82 -9"/><polyline class="cls-6" points="974.97 73.85 864.82 65 752.82 57 722.82 54 691.82 49 686.82 52 681.82 77 676.82 80 642.82 72 637.82 73 633.82 91 625.82 110 615.82 150 510.82 126 430.82 109 433.82 92 444.82 17 444.82 -8"/><polyline class="cls-6" points="430.82 109 389.82 102 400.82 -8"/><polyline class="cls-6" points="389.82 102 327.82 89 328.82 81 321.82 78 320.82 66 308.82 64 304.82 67 303.82 86 327.82 89"/><polyline class="cls-6" points="303.82 86 240.82 75 89.82 55 53.82 50 -9.18 37"/><polyline class="cls-6" points="885.82 214 615.82 150 720.82 175 708.82 212 706.82 224 702.82 226 674.82 226"/><polyline class="cls-6" points="841.6 545.85 810.82 553 805.82 551 758.82 512 748.82 508 733.82 509 569.82 573 560.82 578 450.82 670 428.82 697 415.82 708 402.82 716 388.82 722 372.82 724 334.82 724 271.82 725 228.82 727 6.82 778 -2.18 757 6.82 778 36.82 845 82.82 939 74.82 923 97.82 911 105.82 905 114.82 892 114.82 883 117.82 878 116.82 873 97.82 872 92.82 883 49.82 872"/><polyline class="cls-6" points="388.82 722 395.82 731 422.82 742 410.82 837 409.82 855 406.82 865 368.82 934"/><polyline class="cls-6" points="422.82 742 500.82 759 577.82 779 710.82 814 751.82 838 802.82 857 873.82 885 904.82 895 908.82 897 956.82 937"/><polyline class="cls-6" points="994.82 845 1085.82 851 1134.82 855 1208.82 862 1252.82 868 1262.82 869 1435.82 871 1612.82 871 1662.82 872 1676.82 875 1693.82 884 1741.82 938"/><polyline class="cls-6" points="1713.82 906 1730.82 869 1734.82 865 1831.82 852"/><polyline class="cls-6" points="1627.45 871.29 1633.82 926 1630.82 939"/><polyline class="cls-6" points="1522.01 871 1517.82 906 1512.82 911 1489.82 912 1484.82 922 1401.82 901 1400.82 909 1388.82 939"/><line class="cls-6" x1="1401.82" y1="901" x2="1395.38" y2="870.53"/><polyline class="cls-6" points="1388.73 870.46 1385.82 864 1342.82 787 1330.82 752 1330.82 703 1279.82 605 1253.82 559 1219.82 552 1216.82 550 1166.82 511 1091.82 455 1022.82 397 1005.82 382 994.82 375"/><polyline class="cls-6" points="1253.82 559 1294.82 566 1331.82 569 1366.82 571 1377.82 575 1385.82 579 1425.82 607 1460.82 635 1520.82 668 1525.82 674 1526.82 678 1525.82 706 1525.82 709 1548.82 841 1554.82 870"/><polyline class="cls-6" points="1525.82 706 1537.82 709 1551.82 705 1573.82 704 1593.82 707 1687.82 728 1700.82 729 1710.82 726 1712.82 718 1714.82 692"/><polyline class="cls-6" points="1366.08 570.96 1377.82 512 1377.82 500 1372.82 443 1372.82 426 1375.82 412 1403.82 308 1400.82 292 1401.82 268 1397.82 260"/><polyline class="cls-6" points="1372.82 443 1384.82 444 1433.82 453 1446.82 458 1489.82 478 1515.82 497 1525.82 504 1539.82 517 1599.82 537 1625.82 540 1648.82 544 1722.82 515 1731.82 516"/><polyline class="cls-6" points="1656.82 -5 1591.82 162 1569.82 167 1561.82 191"/><polyline class="cls-6" points="1822.82 242 1804.82 232 1778.82 223 1632.82 179 1591.82 162"/></g><g id="Togbane"><polyline class="cls-7" points="791.82 936 826.82 703 838.82 625 838.82 590 833.82 551 815.82 494 795.82 456 771.82 424 742.82 398 725.82 384 708.82 374 689.82 364 670.82 357 633.82 346 593.82 334 554.82 325 489.82 313 450.82 307 249.82 275 -9.18 233"/></g></svg>