<svg id="Layer_1" data-name="Layer 1" xmlns="http://www.w3.org/2000/svg" viewBox="0 0 1920 350"><defs><style>.cls-1{fill:#4d4c4c;}</style></defs><title>bg-particles</title><circle class="cls-1" cx="198.02" cy="57.96" r="8"/><circle class="cls-1" cx="279.02" cy="147.96" r="8"/><circle class="cls-1" cx="219.02" cy="237.96" r="8"/><circle class="cls-1" cx="383.02" cy="77.96" r="8"/><circle class="cls-1" cx="333.02" cy="217.96" r="8"/><circle class="cls-1" cx="303.02" cy="307.96" r="8"/><circle class="cls-1" cx="413.02" cy="147.96" r="8"/><circle class="cls-1" cx="393.02" cy="257.96" r="8"/><rect class="cls-1" x="174.64" y="133.38" width="10" height="10" transform="translate(234.65 -81.6) rotate(66.43)"/><rect class="cls-1" x="234.64" y="323.38" width="10" height="10" transform="translate(592.28 126.14) rotate(96.29)"/><rect class="cls-1" x="297.64" y="202.38" width="10" height="10" transform="translate(211.68 -148.04) rotate(41.22)"/><rect class="cls-1" x="307.64" y="62.38" width="10" height="10" transform="translate(5.16 -20.6) rotate(3.81)"/><rect class="cls-1" x="367.64" y="312.38" width="10" height="10" transform="matrix(1, 0.07, -0.07, 1, 21.88, -24.03)"/><rect class="cls-1" x="359.64" y="142.38" width="10" height="10" transform="translate(-26.14 102.91) rotate(-15.52)"/><circle class="cls-1" cx="524.24" cy="21.35" r="8"/><circle class="cls-1" cx="554.41" cy="138.61" r="8"/><circle class="cls-1" cx="459.58" cy="190.64" r="8"/><circle class="cls-1" cx="679" cy="124.67" r="8"/><circle class="cls-1" cx="569.9" cy="225.65" r="8"/><circle class="cls-1" cx="501.66" cy="291.56" r="8"/><circle class="cls-1" cx="673.2" cy="200.61" r="8"/><circle class="cls-1" cx="604.58" cy="288.87" r="8"/><rect class="cls-1" x="465.73" y="79.14" width="10" height="10" transform="translate(587.44 -379.6) rotate(93.99)"/><rect class="cls-1" x="431.02" y="275.34" width="10" height="10" transform="translate(911.7 74.35) rotate(123.85)"/><rect class="cls-1" x="542.85" y="197.22" width="10" height="10" transform="translate(538.11 -381.68) rotate(68.78)"/><rect class="cls-1" x="616.49" y="77.73" width="10" height="10" transform="translate(133.88 -311.39) rotate(31.37)"/><rect class="cls-1" x="554.01" y="327.13" width="10" height="10" transform="translate(254.56 -242.43) rotate(31.37)"/><rect class="cls-1" x="625.58" y="172.71" width="10" height="10" transform="translate(50.97 -127.67) rotate(12.04)"/><circle class="cls-1" cx="742.9" cy="257.47" r="8"/><circle class="cls-1" cx="852.76" cy="206.55" r="8"/><circle class="cls-1" cx="921.11" cy="290.38" r="8"/><circle class="cls-1" cx="816.47" cy="86.55" r="8"/><circle class="cls-1" cx="935.55" cy="175.54" r="8"/><circle class="cls-1" cx="1012.73" cy="230.71" r="8"/><circle class="cls-1" cx="892.2" cy="78.48" r="8"/><circle class="cls-1" cx="991.44" cy="129.98" r="8"/><rect class="cls-1" x="809.35" y="293.71" width="10" height="10" transform="translate(-28.4 93.37) rotate(-6.45)"/><rect class="cls-1" x="1008.6" y="292.29" width="10" height="10" transform="translate(201.49 -378.17) rotate(23.4)"/><rect class="cls-1" x="911.5" y="196.47" width="10" height="10" transform="translate(30.63 510.98) rotate(-31.66)"/><rect class="cls-1" x="780.65" y="145.7" width="10" height="10" transform="translate(364.31 830.72) rotate(-69.08)"/><rect class="cls-1" x="1037.23" y="161.95" width="10" height="10" transform="translate(514.08 1080.83) rotate(-69.08)"/><rect class="cls-1" x="872.41" y="119.55" width="10" height="10" transform="translate(728.36 998.14) rotate(-88.4)"/><circle class="cls-1" cx="1125.95" cy="39.31" r="8"/><circle class="cls-1" cx="1200.5" cy="134.72" r="8"/><circle class="cls-1" cx="1134.39" cy="220.33" r="8"/><circle class="cls-1" cx="1309.11" cy="72.12" r="8"/><circle class="cls-1" cx="1249.5" cy="208.31" r="8"/><circle class="cls-1" cx="1213.32" cy="296" r="8"/><circle class="cls-1" cx="1334.17" cy="144.04" r="8"/><circle class="cls-1" cx="1306.58" cy="252.38" r="8"/><rect class="cls-1" x="1097.02" y="113.26" width="10" height="10" transform="translate(844.08 -959.66) rotate(70.42)"/><rect class="cls-1" x="1143.67" y="306.97" width="10" height="10" transform="translate(1660.47 -762.65) rotate(100.27)"/><rect class="cls-1" x="1214.93" y="190.64" width="10" height="10" transform="translate(499.34 -807.97) rotate(45.21)"/><rect class="cls-1" x="1234.64" y="51.68" width="10" height="10" transform="translate(19.13 -167.53) rotate(7.79)"/><rect class="cls-1" x="1277.11" y="305.24" width="10" height="10" transform="translate(53.89 -170.94) rotate(7.79)"/><rect class="cls-1" x="1280.95" y="135.1" width="10" height="10" transform="translate(-2.05 259.85) rotate(-11.53)"/><circle class="cls-1" cx="1428.19" cy="301.89" r="8"/><circle class="cls-1" cx="1499.62" cy="204.13" r="8"/><circle class="cls-1" cx="1600.03" cy="244.35" r="8"/><circle class="cls-1" cx="1409.74" cy="116.73" r="8"/><circle class="cls-1" cx="1557.03" cy="136.89" r="8"/><circle class="cls-1" cx="1651.27" cy="147.76" r="8"/><circle class="cls-1" cx="1472.08" cy="72.99" r="8"/><circle class="cls-1" cx="1583.84" cy="69.95" r="8"/><rect class="cls-1" x="1505.67" y="298.36" width="10" height="10" transform="matrix(0.81, -0.58, 0.58, 0.81, 103.86, 931.87)"/><rect class="cls-1" x="1679.29" y="200.59" width="10" height="10" transform="translate(-12 164.54) rotate(-5.57)"/><rect class="cls-1" x="1547.92" y="163.8" width="10" height="10" transform="translate(644.29 1439.41) rotate(-60.63)"/><rect class="cls-1" x="1408.86" y="182.79" width="10" height="10" transform="translate(1426.01 1614.01) rotate(-98.05)"/><rect class="cls-1" x="1641.19" y="72.69" width="10" height="10" transform="translate(1799.91 1718.53) rotate(-98.05)"/><rect class="cls-1" x="1476.46" y="115.46" width="10" height="10" transform="translate(2055.68 1491.41) rotate(-117.37)"/><circle class="cls-1" cx="1765.11" cy="257.01" r="8"/><circle class="cls-1" cx="1785.82" cy="156.16" r="8"/><rect class="cls-1" x="1734.3" y="313.4" width="10" height="10" transform="translate(784.6 -1169.91) rotate(46.95)"/><rect class="cls-1" x="1812.62" y="205.35" width="10" height="10" transform="translate(394.27 1360.16) rotate(-45.53)"/><circle class="cls-1" cx="81.02" cy="56.96" r="8"/><circle class="cls-1" cx="154.96" cy="192.12" r="8"/><circle class="cls-1" cx="91.02" cy="236.96" r="8"/><rect class="cls-1" x="65.64" y="291.38" width="10" height="10" transform="matrix(1, 0.07, -0.07, 1, 19.82, -4.03)"/><rect class="cls-1" x="94.41" y="161.2" width="10" height="10" transform="translate(109.44 -27.2) rotate(33.85)"/><circle class="cls-1" cx="1772.62" cy="36.6" r="8"/><circle class="cls-1" cx="1827.29" cy="114.13" r="8"/><rect class="cls-1" x="1741.08" y="49.79" width="10" height="10" transform="translate(28.97 376.24) rotate(-12.4)"/><rect class="cls-1" x="1871.16" y="58.67" width="10" height="10" transform="translate(617.04 1456.02) rotate(-49.82)"/></svg>