<svg id="Layer_1" data-name="Layer 1" xmlns="http://www.w3.org/2000/svg" viewBox="0 0 95.98 179.58"><defs><style>.cls-1{fill:#313133;}.cls-2{fill:#f7f7f7;}</style></defs><title>circle-tree-dark</title><circle class="cls-1" cx="47.99" cy="47.99" r="44.83"/><path class="cls-2" d="M48,96A48,48,0,1,1,96,48,48,48,0,0,1,48,96ZM48,6.33A41.67,41.67,0,1,0,89.65,48,41.71,41.71,0,0,0,48,6.33Z"/><rect class="cls-2" x="44.59" y="47.99" width="6.33" height="131.59"/><rect class="cls-2" x="44.04" y="38.34" width="19.01" height="6.33" transform="translate(-10.97 62.18) rotate(-55.55)"/><rect class="cls-2" x="45.46" y="59.87" width="19.69" height="6.33" transform="translate(-27.8 51.86) rotate(-41.08)"/><rect class="cls-2" x="37.26" y="66.5" width="6.33" height="19.01" transform="translate(-43.43 56.52) rotate(-48.92)"/><rect class="cls-2" x="38.81" y="31.99" width="6.33" height="19.01" transform="matrix(0.82, -0.57, 0.57, 0.82, -16.11, 31.02)"/></svg>
