<svg id="Layer_1" data-name="Layer 1" xmlns="http://www.w3.org/2000/svg" viewBox="0 0 1920 50"><defs><style>.cls-1{fill:#d9d9d9;}.cls-2{fill:#4d4c4c;}.cls-3{fill:#323235;}</style></defs><title>dark-floor</title><rect class="cls-1" width="1920" height="41"/><rect class="cls-2" y="9.5" width="1920" height="40"/><path class="cls-3" d="M1920,32.46c0-4.6-1-7.7-10.21-10.77s-56.17,8.17-75.58,7.66-138.89,18.9-102.12-.51-92.94-4.59-103.15-11.74S1603.4,25.78,1599.32,35s-83.75-3.57-135.83-12.77-92.94,2.05-107.23,2.56-87.83,15.32-94,4.59-46-20.93-63.32-13.27-88.85,16.85-88.85,16.85-51.07-8.17-154.22,0S872.17,10.46,846.64,18.12,734.3,31.4,722,26.8s-71.49-18.89-95-6.64-97,6.64-134.8,12.77-28.6-5.11-82.73-10.73-68.42,6.13-96,9.71-30.64-10.22-69.44-15.32S239,21.18,183.83,29.35s-51.06.51-94-5.61S0,32.46,0,32.46V9.5H1920Z"/><ellipse class="cls-3" cx="1213.4" cy="21.33" rx="9.38" ry="4.96"/><ellipse class="cls-3" cx="1251.4" cy="32.5" rx="4.32" ry="5.65" transform="translate(277.88 819.47) rotate(-40.44)"/><ellipse class="cls-3" cx="852.21" cy="25.82" rx="6.98" ry="5.45" transform="translate(370.79 729.5) rotate(-57.36)"/><ellipse class="cls-3" cx="865.78" cy="35.99" rx="3.31" ry="2.36" transform="translate(724.87 890.99) rotate(-83.02)"/><ellipse class="cls-3" cx="790.63" cy="36.84" rx="2.36" ry="3.31" transform="translate(33.59 267.8) rotate(-19.63)"/><ellipse class="cls-3" cx="759.63" cy="40.84" rx="3.31" ry="2.36" transform="translate(648.28 793.38) rotate(-84.66)"/><ellipse class="cls-3" cx="646.26" cy="25.71" rx="6.98" ry="5.45" transform="translate(73.72 326.57) rotate(-30)"/><ellipse class="cls-3" cx="654.63" cy="35.84" rx="2.36" ry="3.31" transform="translate(22.54 209.89) rotate(-18.53)"/><ellipse class="cls-3" cx="629.79" cy="30.39" rx="1.88" ry="3.31" transform="translate(394.76 615.47) rotate(-70.88)"/><ellipse class="cls-3" cx="513.63" cy="39.84" rx="2.36" ry="3.31" transform="translate(13.96 165.29) rotate(-18.53)"/><ellipse class="cls-3" cx="496.49" cy="39.18" rx="3.67" ry="2.36" transform="translate(269.5 482.47) rotate(-67.4)"/><ellipse class="cls-3" cx="381.26" cy="31.78" rx="5.45" ry="6.98" transform="translate(4.09 95.91) rotate(-14.42)"/><ellipse class="cls-3" cx="395.06" cy="37.64" rx="5.04" ry="3.93" transform="translate(251.21 407.49) rotate(-74.19)"/><ellipse class="cls-3" cx="371.28" cy="39.15" rx="3.37" ry="5.04" transform="translate(12.44 142.19) rotate(-22.04)"/><ellipse class="cls-3" cx="228.87" cy="24.16" rx="3.74" ry="6.85" transform="translate(5.35 78.97) rotate(-19.8)"/><ellipse class="cls-3" cx="259.29" cy="27.27" rx="5.04" ry="3.93" transform="translate(162.4 269.33) rotate(-74.19)"/><ellipse class="cls-3" cx="263.15" cy="38.76" rx="2.02" ry="3.31" transform="translate(-0.96 7.2) rotate(-1.56)"/><ellipse class="cls-3" cx="249.23" cy="33.34" rx="3.5" ry="2.12" transform="translate(98.35 234.5) rotate(-60.75)"/><ellipse class="cls-3" cx="41.58" cy="30.79" rx="2.36" ry="3.31" transform="translate(-7.82 15.41) rotate(-19.23)"/><ellipse class="cls-3" cx="58.72" cy="31.25" rx="3.67" ry="2.36" transform="translate(7.82 74.07) rotate(-68.09)"/><ellipse class="cls-3" cx="52.41" cy="39.85" rx="3.37" ry="5.04" transform="translate(-6.52 69.2) rotate(-63.72)"/><ellipse class="cls-3" cx="1037.35" cy="41.9" rx="5.1" ry="6.15" transform="translate(161.4 599.18) rotate(-34.78)"/><ellipse class="cls-3" cx="1023.45" cy="38.61" rx="4.35" ry="3.76" transform="translate(751.49 1026.02) rotate(-76.76)"/><ellipse class="cls-3" cx="1045.81" cy="34.4" rx="3.12" ry="4.49" transform="translate(201.85 652.97) rotate(-38.12)"/><ellipse class="cls-3" cx="1172.47" cy="32.9" rx="4.3" ry="5.62" transform="translate(782.67 1139.17) rotate(-72.2)"/><ellipse class="cls-3" cx="1204.2" cy="42.95" rx="3.6" ry="5.76" transform="translate(274.14 809.06) rotate(-41.52)"/><ellipse class="cls-3" cx="1412.94" cy="28.94" rx="3.8" ry="2.87" transform="translate(6.11 163.32) rotate(-6.63)"/><ellipse class="cls-3" cx="1435.3" cy="26.14" rx="2.4" ry="3.89" transform="translate(853.19 1338.36) rotate(-67.12)"/><ellipse class="cls-3" cx="1623.76" cy="24.1" rx="7.69" ry="4.17"/><ellipse class="cls-3" cx="1654.93" cy="33.49" rx="3.58" ry="4.71" transform="translate(326.89 1021.52) rotate(-37.81)"/><ellipse class="cls-3" cx="1722.43" cy="25.25" rx="2.98" ry="4.79" transform="translate(385.22 1111.19) rotate(-39.92)"/><ellipse class="cls-3" cx="1903.81" cy="35.24" rx="12.36" ry="9.36" transform="translate(359.16 1148.71) rotate(-36.85)"/><ellipse class="cls-3" cx="1889.26" cy="29.12" rx="4.79" ry="2.98" transform="translate(1676.98 1906.65) rotate(-84.43)"/></svg>