<svg id="Layer_1" data-name="Layer 1" xmlns="http://www.w3.org/2000/svg" viewBox="0 0 230.84 135.21"><defs><style>.cls-1{fill:#f8f7f7;}.cls-2{fill:#323234;}</style></defs><title>lunde-dark</title><path class="cls-1" d="M230.84,135.21h-5V18.34A13.36,13.36,0,0,0,212.49,5H18.34A13.36,13.36,0,0,0,5,18.34V135.21H0V18.34A18.36,18.36,0,0,1,18.34,0H212.49a18.37,18.37,0,0,1,18.35,18.34Z"/><rect class="cls-2" x="10.03" y="10.21" width="210.64" height="89.23" rx="9.22"/><path class="cls-1" d="M211.45,101H19.26A10.74,10.74,0,0,1,8.53,90.22V19.44A10.74,10.74,0,0,1,19.26,8.71H211.45a10.74,10.74,0,0,1,10.72,10.73V90.22A10.74,10.74,0,0,1,211.45,101ZM19.26,11.71a7.74,7.74,0,0,0-7.73,7.73V90.22A7.74,7.74,0,0,0,19.26,98H211.45a7.73,7.73,0,0,0,7.72-7.73V19.44a7.73,7.73,0,0,0-7.72-7.73Z"/><path class="cls-1" d="M61.65,23.54h6.81V44.2h7.88v6H61.65Z"/><path class="cls-1" d="M97.26,50.18H91.68V48.05a6,6,0,0,1-5.55,2.81c-6.76,0-7.45-5.47-7.45-8.17V30.2h6V41.11c0,2.19.47,4.14,3.16,4.14,3,0,3.46-2.13,3.46-4.18V30.2h6Z"/><path class="cls-1" d="M101.58,30.2h5.58v2.12a5.92,5.92,0,0,1,5.5-2.8c6.74,0,7.42,5.47,7.42,8.17V50.18h-6V39.27c0-2.19-.46-4.14-3.13-4.14-3,0-3.42,2.13-3.42,4.18V50.18h-6Z"/><path class="cls-1" d="M145.13,50.18h-5.68V48c-.58.83-2,2.81-6,2.81-6.05,0-10-4.68-10-10.7,0-6.76,4.83-10.61,9.9-10.61a7.66,7.66,0,0,1,5.87,2.37V23.54h6Zm-15.76-10a4.89,4.89,0,0,0,5,5.12,5.25,5.25,0,0,0,3.71-1.52,4.77,4.77,0,0,0,1.4-3.7A4.82,4.82,0,0,0,138,36.5a5,5,0,0,0-3.57-1.4,4.9,4.9,0,0,0-5.07,5Z"/><path class="cls-1" d="M154.35,42.26c.25,2.12,2.27,3.53,4.61,3.53a4,4,0,0,0,3.64-1.88h6.11A11.73,11.73,0,0,1,164.65,49a9.79,9.79,0,0,1-5.69,1.8,10.66,10.66,0,0,1-.11-21.31,10.21,10.21,0,0,1,7.56,3.16,11.16,11.16,0,0,1,2.81,9.58Zm9-4.54a4.73,4.73,0,0,0-8.93,0Z"/><polygon class="cls-1" points="74.61 92.17 70.25 92.17 70.25 85.13 61.3 76.18 52.35 85.13 52.35 96.54 70.25 96.54 74.61 96.54 88.53 96.54 88.53 78.14 74.61 78.14 74.61 92.17"/><polygon class="cls-1" points="81.58 57.28 74.61 78.14 88.53 78.1 81.58 57.28"/><polygon class="cls-1" points="145.73 80 136.18 89.55 136.18 92.17 130.34 92.17 130.34 81.68 122.2 74.93 102.88 74.93 94.74 81.68 94.74 96.6 130.34 96.6 130.34 96.54 136.18 96.54 155.28 96.54 155.28 89.55 145.73 80"/><polygon class="cls-1" points="169.4 70.56 160.46 81.98 160.46 96.54 178.35 96.54 178.35 81.98 169.4 70.56"/></svg>